<svg version="1.1" id="Layer_1" xmlns="http://www.w3.org/2000/svg" xmlns:xlink="http://www.w3.org/1999/xlink" x="0px" y="0px"
	 width="100%" viewBox="0 0 500 500" enable-background="new 0 0 500 500" xml:space="preserve">
<path fill="#000000" opacity="1.000000" stroke="none" 
	d="
M1.000000,184.000000 
	C1.000000,122.681854 1.000000,61.863712 1.000000,1.022784 
	C167.609863,1.022784 334.219727,1.022784 500.914795,1.022784 
	C500.914795,167.568207 500.914795,334.136475 500.914795,500.852356 
	C334.333435,500.852356 167.666733,500.852356 1.000000,500.852356 
	C1.000000,395.446808 1.000000,289.973419 1.000000,184.000000 
M206.415375,36.013687 
	C206.246902,36.333679 206.078430,36.653671 205.981796,36.981701 
	C205.981796,36.981701 205.973938,36.909859 205.415558,37.013851 
	C205.247025,37.333843 205.078476,37.653839 204.981796,37.981709 
	C204.981796,37.981709 204.974091,37.909836 204.415710,38.013935 
	C204.247116,38.333935 204.078537,38.653934 203.981827,38.981728 
	C203.981827,38.981728 203.974213,38.909821 203.415787,39.013958 
	C203.247162,39.333973 203.078537,39.653988 202.981827,39.981731 
	C202.981827,39.981731 202.974289,39.909809 202.415833,40.013973 
	C202.247192,40.334007 202.078552,40.654037 201.981827,40.981724 
	C201.981827,40.981724 201.974350,40.909794 201.415894,41.014038 
	C201.247223,41.334084 201.078552,41.654129 200.981827,41.981720 
	C200.981827,41.981720 200.974442,41.909767 200.416000,42.014187 
	C200.247269,42.334221 200.078552,42.654259 199.981827,42.981724 
	C199.981827,42.981724 199.974548,42.909729 199.416183,43.014381 
	C199.247375,43.334389 199.078583,43.654396 198.981796,43.981701 
	C198.981796,43.981701 198.974655,43.909687 198.416336,44.014568 
	C198.247482,44.334545 198.078613,44.654518 197.981812,44.981709 
	C197.981812,44.981709 197.974747,44.909649 197.416489,45.014694 
	C197.247574,45.334656 197.078659,45.654613 196.981796,45.981701 
	C196.981796,45.981701 196.974823,45.909618 196.416565,46.014767 
	C196.247620,46.334724 196.078659,46.654686 195.981781,46.981709 
	C195.981781,46.981709 195.974899,46.909599 195.416626,47.014828 
	C195.247650,47.334801 195.078674,47.654770 194.981781,47.981709 
	C194.981781,47.981709 194.974976,47.909584 194.416733,48.014950 
	C194.247711,48.334923 194.078690,48.654900 193.981796,48.981716 
	C193.981796,48.981716 193.975098,48.909569 193.416931,49.015194 
	C193.247849,49.335155 193.078751,49.655121 192.981842,49.981739 
	C192.981842,49.981739 192.975296,49.909546 192.417282,50.015663 
	C192.248062,50.335560 192.078842,50.655457 191.981827,50.981823 
	C191.981827,50.981823 191.975204,50.909630 191.414200,51.018742 
	C191.246475,51.341770 191.078735,51.664799 190.981964,51.987823 
	C190.981964,51.987823 190.961700,51.919823 190.496368,52.111973 
	C190.429245,52.397137 190.362137,52.682301 189.745956,53.285130 
	C189.487610,53.857658 189.229248,54.430191 189.004883,55.007919 
	C189.004883,55.007919 189.000793,54.973782 188.539856,55.334087 
	C187.994705,55.891499 187.449570,56.448910 186.324982,57.193298 
	C185.225723,58.360092 184.126480,59.526886 182.305420,60.839767 
	C179.751663,63.076099 177.032043,65.154114 174.697693,67.599854 
	C172.893311,69.490349 171.571655,71.841568 170.337921,74.817093 
	C170.665405,74.874596 170.992889,74.982368 171.320389,74.982460 
	C213.451675,74.993454 255.582993,75.004753 297.714203,74.958176 
	C298.907776,74.956856 300.100677,74.334610 301.860901,73.774376 
	C300.921234,72.832359 299.981537,71.890335 299.003571,70.998138 
	C299.003571,70.998138 299.065155,70.985535 298.905670,70.558365 
	C298.742676,70.259804 298.491119,70.114250 297.539398,69.803543 
	C278.567871,50.891598 259.618683,31.957092 240.579178,13.113848 
	C239.174133,11.723295 237.118454,10.990136 235.071365,9.331013 
	C234.355804,9.536380 233.640244,9.741746 232.990997,9.980672 
	C232.990997,9.980672 232.974960,9.908103 232.417740,10.016144 
	C232.247910,10.335629 232.078079,10.655112 231.980881,10.980747 
	C231.980881,10.980747 231.974991,10.908092 231.417770,11.016178 
	C231.247925,11.335672 231.078079,11.655168 230.980881,11.980751 
	C230.980881,11.980751 230.975037,11.908081 230.417816,12.016257 
	C230.247955,12.335754 230.078079,12.655251 229.980881,12.980757 
	C229.980881,12.980757 229.975113,12.908070 229.417923,13.016354 
	C229.248016,13.335851 229.078110,13.655348 228.980911,13.980779 
	C228.980911,13.980779 228.975204,13.908054 228.418015,14.016461 
	C228.248062,14.335956 228.078125,14.655449 227.980911,14.980775 
	C227.980911,14.980775 227.975296,14.908041 227.418106,15.016543 
	C227.248123,15.336043 227.078140,15.655544 226.980927,15.980798 
	C226.980927,15.980798 226.975388,15.908019 226.418198,16.016623 
	C226.248169,16.336136 226.078140,16.655649 225.980911,16.980795 
	C225.980911,16.980795 225.975494,16.907991 225.418320,17.016771 
	C225.248245,17.336279 225.078171,17.655785 224.980942,17.980806 
	C224.980942,17.980806 224.975616,17.907961 224.418518,18.016939 
	C224.248367,18.336424 224.078232,18.655909 223.980927,18.980803 
	C223.980927,18.980803 223.975723,18.907938 223.418655,19.017056 
	C223.248459,19.336514 223.078262,19.655972 222.980942,19.980808 
	C222.980942,19.980808 222.975769,19.907927 222.418671,20.017029 
	C222.248474,20.336489 222.078262,20.655951 221.980942,20.980818 
	C221.980942,20.980818 221.975769,20.907934 221.418594,21.016884 
	C221.248428,21.336380 221.078262,21.655874 220.981506,21.996010 
	C220.981506,21.996010 220.941238,21.931229 220.305176,22.112667 
	C220.170883,22.745691 220.036591,23.378716 219.273102,24.218554 
	C216.488098,27.171534 213.703094,30.124514 210.278793,33.032433 
	C209.832367,33.333263 209.385956,33.634094 209.002151,33.984543 
	C209.002151,33.984543 208.973480,33.909977 208.414978,34.013206 
	C208.246674,34.333248 208.078369,34.653286 207.981796,34.981686 
	C207.981796,34.981686 207.973602,34.909939 207.415161,35.013458 
	C207.246780,35.333473 207.078400,35.653488 206.981796,35.981686 
	C206.981796,35.981686 206.973770,35.909893 206.415375,36.013687 
M54.992237,279.010559 
	C54.992237,279.010559 54.913254,279.004333 55.014675,279.565765 
	C55.333675,279.740234 55.652672,279.914673 55.981819,280.017792 
	C55.981819,280.017792 55.910202,280.025635 56.005630,280.587433 
	C56.326672,280.754486 56.647709,280.921539 56.981960,281.017792 
	C56.981960,281.017792 56.911083,281.030548 57.007294,281.590668 
	C57.327934,281.756714 57.648571,281.922760 57.981998,282.017914 
	C57.981998,282.017914 57.911110,282.030609 58.007275,282.590698 
	C58.327888,282.756714 58.648502,282.922729 58.981995,283.017944 
	C58.981995,283.017944 58.911137,283.030701 59.007252,283.590759 
	C59.327839,283.756744 59.648426,283.922760 59.982025,284.017883 
	C59.982025,284.017883 59.911167,284.030792 60.007256,284.590790 
	C60.327812,284.756775 60.648369,284.922760 60.982037,285.017914 
	C60.982037,285.017914 60.911205,285.030884 61.007240,285.590851 
	C61.327759,285.756805 61.648281,285.922760 61.982071,286.017853 
	C61.982071,286.017853 61.911236,286.030975 62.007198,286.590881 
	C62.327705,286.756805 62.648209,286.922729 62.982067,287.017883 
	C62.982067,287.017883 62.911263,287.031067 63.007160,287.590973 
	C63.327656,287.756866 63.648148,287.922729 63.982079,288.017822 
	C63.982079,288.017822 63.911282,288.031158 64.007141,288.591034 
	C64.327621,288.756897 64.648102,288.922760 64.982079,289.017883 
	C64.982079,289.017883 64.911293,289.031219 65.007172,289.591064 
	C65.327621,289.756927 65.648071,289.922760 65.982094,290.017822 
	C65.982094,290.017822 65.911301,290.031281 66.007195,290.591064 
	C66.327614,290.756897 66.648033,290.922760 66.982109,291.017822 
	C66.982109,291.017822 66.911316,291.031311 67.007217,291.591034 
	C67.327614,291.756897 67.648010,291.922729 67.982086,292.017822 
	C67.982086,292.017822 67.911331,292.031403 68.007256,292.591095 
	C68.327637,292.756897 68.648010,292.922729 68.982117,293.017792 
	C68.982117,293.017792 68.911346,293.031433 69.007301,293.591064 
	C69.327675,293.756897 69.648048,293.922729 69.982124,294.017822 
	C69.982124,294.017822 69.911346,294.031403 70.007401,294.591003 
	C70.327751,294.756836 70.648109,294.922699 70.982109,295.017792 
	C70.982109,295.017792 70.911346,295.031342 71.007545,295.590881 
	C71.327866,295.756775 71.648186,295.922668 71.982109,296.017822 
	C71.982109,296.017822 71.911339,296.031281 72.007690,296.590729 
	C72.327965,296.756683 72.648239,296.922607 72.992455,297.015472 
	C72.992455,297.015472 72.926407,297.054871 73.054848,297.661987 
	C73.706970,298.069458 74.359085,298.476929 75.890549,298.980896 
	C76.260963,298.049927 76.955017,297.119080 76.955299,296.188019 
	C76.968079,253.795883 76.920128,211.403748 77.049622,168.291656 
	C76.021973,168.612686 74.994324,168.933701 73.775589,169.871811 
	C72.113884,171.452759 70.417297,172.998810 68.795815,174.619995 
	C50.604599,192.807907 32.503296,211.086990 14.170881,229.131317 
	C10.820985,232.428558 10.510173,234.356201 14.040261,237.815689 
	C27.574533,251.079269 40.783390,264.674896 54.233639,278.586761 
	C54.436394,278.824524 54.686241,278.992035 54.992237,279.010559 
M176.978989,401.020782 
	C176.978989,401.020782 176.905884,401.026764 177.020477,401.579773 
	C177.337860,401.751129 177.655258,401.922516 177.978973,402.020844 
	C177.978973,402.020844 177.905899,402.026825 178.020370,402.579926 
	C178.337769,402.751251 178.655167,402.922577 178.978989,403.020813 
	C178.978989,403.020813 178.905899,403.026855 179.020264,403.580017 
	C179.337677,403.751312 179.655106,403.922577 179.978958,404.020844 
	C179.978958,404.020844 179.905899,404.026917 180.020172,404.580078 
	C180.337601,404.751343 180.655045,404.922607 180.978928,405.020874 
	C180.978928,405.020874 180.905899,405.026978 181.020157,405.580109 
	C181.337585,405.751343 181.655014,405.922577 181.978958,406.020813 
	C181.978958,406.020813 181.905899,406.027008 182.020187,406.580139 
	C182.337601,406.751373 182.655029,406.922607 182.978958,407.020813 
	C182.978958,407.020813 182.905899,407.027008 183.020264,407.580078 
	C183.337662,407.751343 183.655045,407.922577 183.978943,408.020844 
	C183.978943,408.020844 183.905899,408.026978 184.020294,408.580048 
	C184.337662,408.751312 184.655029,408.922577 184.978943,409.020844 
	C184.978943,409.020844 184.905914,409.027008 185.020096,409.580139 
	C185.337509,409.751373 185.654922,409.922607 185.978958,410.020844 
	C185.978958,410.020844 185.905930,410.027069 186.019562,410.580444 
	C186.337082,410.751556 186.654617,410.922668 186.978989,411.020844 
	C186.978989,411.020844 186.905975,411.027252 187.018295,411.581421 
	C187.336227,411.752197 187.654144,411.922974 187.995850,412.018707 
	C187.995850,412.018707 187.930038,412.061981 188.117874,412.699615 
	C188.752975,412.845093 189.388077,412.990570 190.214966,413.766479 
	C204.188126,427.795837 218.217590,441.769897 232.086533,455.901520 
	C234.835297,458.702393 236.613174,458.081329 239.044724,455.621887 
	C252.031448,442.485931 265.103363,429.433685 278.200470,416.407471 
	C285.153900,409.491638 292.218109,402.687225 299.788605,395.501068 
	C300.386292,394.795624 300.984009,394.090149 301.581696,393.384705 
	C300.140259,392.921692 298.699493,392.056671 297.257263,392.054108 
	C255.517044,391.980408 213.776688,391.992279 172.036346,391.998108 
	C171.439423,391.998199 170.842484,392.095764 169.223236,392.237030 
	C170.463654,393.906799 171.222412,394.928192 172.486511,396.267578 
	C173.283478,396.839661 174.080444,397.411713 175.025482,398.629852 
	C175.329468,399.109528 175.633453,399.589172 175.981003,400.003357 
	C175.981003,400.003357 175.905869,400.026703 176.020554,400.579742 
	C176.337921,400.751129 176.655304,400.922516 176.978989,401.020782 
M381.980469,90.227722 
	C381.644348,89.182808 381.308258,88.137894 380.041962,87.005264 
	C306.994751,87.003296 233.947556,86.993271 160.900360,87.004021 
	C137.606644,87.007446 114.312920,87.066010 90.129593,86.936813 
	C89.722374,88.516472 88.959717,90.095909 88.958763,91.675812 
	C88.902023,185.952332 88.903816,280.228882 88.945580,374.505402 
	C88.946251,376.017822 89.509598,377.529999 90.290154,379.794403 
	C92.114616,379.862915 93.939072,379.990997 95.763550,379.991333 
	C150.375229,380.001984 204.986923,380.011627 259.598602,379.996124 
	C300.056488,379.984650 340.514374,379.937866 381.777527,379.827576 
	C381.795746,378.218689 381.813965,376.609833 381.981689,374.074097 
	C381.987793,332.797424 381.996124,291.520752 381.999359,250.244064 
	C382.002380,211.969116 382.015198,173.694168 381.992340,135.419235 
	C381.983490,120.612511 381.888306,105.805840 381.980469,90.227722 
M398.253143,296.470306 
	C408.919189,286.151825 419.599976,275.848541 430.240631,265.503937 
	C432.806122,263.009796 435.232971,260.373322 437.733643,257.812134 
	C445.471283,249.887146 453.213684,241.966858 460.951172,234.047928 
	C460.650146,233.484207 460.503326,232.967789 460.174225,232.627792 
	C448.544525,220.613419 436.967133,208.547150 425.230560,196.637817 
	C416.386353,187.663452 407.335175,178.893051 398.012360,169.461227 
	C397.616882,169.299011 397.221436,169.136810 396.480133,168.889145 
	C396.480133,168.889145 396.136841,168.984222 395.290436,169.285645 
	C395.194305,169.937653 395.014343,170.589630 395.014008,171.241684 
	C394.993073,213.295898 394.984619,255.350113 395.002167,297.404327 
	C395.002380,297.940765 395.351288,298.477112 395.727783,299.561920 
	C396.711365,298.443481 397.318512,297.753113 398.253143,296.470306 
z"/>
<path fill="#0A2F46" opacity="1.000000" stroke="none" 
	d="
M54.113682,278.146606 
	C40.783390,264.674896 27.574533,251.079269 14.040261,237.815689 
	C10.510173,234.356201 10.820985,232.428558 14.170881,229.131317 
	C32.503296,211.086990 50.604599,192.807907 68.795815,174.619995 
	C70.417297,172.998810 72.113884,171.452759 74.106575,169.745605 
	C74.787048,169.485306 75.136543,169.351212 75.557808,169.666367 
	C75.654968,211.591141 75.684303,253.066666 75.681091,294.542206 
	C75.681015,295.498962 75.313461,296.455719 74.746613,297.138123 
	C73.892746,296.927490 73.409576,296.991180 72.926407,297.054871 
	C72.926407,297.054871 72.992455,297.015472 73.201317,296.636078 
	C72.910568,296.181549 72.410957,296.106415 71.911339,296.031281 
	C71.911339,296.031281 71.982109,296.017822 72.196022,295.637268 
	C71.910400,295.181580 71.410873,295.106476 70.911346,295.031372 
	C70.911346,295.031342 70.982109,295.017792 71.195953,294.637238 
	C70.910316,294.181580 70.410828,294.106506 69.911346,294.031403 
	C69.911346,294.031403 69.982124,294.017822 70.195930,293.637268 
	C69.910271,293.181610 69.410812,293.106537 68.911346,293.031433 
	C68.911346,293.031433 68.982117,293.017792 69.195862,292.637329 
	C68.910187,292.181702 68.410759,292.106567 67.911331,292.031403 
	C67.911331,292.031403 67.982086,292.017822 68.195679,291.637482 
	C67.909950,291.181854 67.410637,291.106598 66.911316,291.031311 
	C66.911316,291.031311 66.982109,291.017822 67.195419,290.637573 
	C66.909584,290.181976 66.410439,290.106628 65.911301,290.031281 
	C65.911301,290.031281 65.982094,290.017822 66.195114,289.637695 
	C65.909187,289.182129 65.410240,289.106689 64.911293,289.031250 
	C64.911293,289.031219 64.982079,289.017883 65.194855,288.637817 
	C64.908844,288.182220 64.410057,288.106689 63.911282,288.031158 
	C63.911282,288.031158 63.982079,288.017822 64.194603,287.637878 
	C63.908504,287.182343 63.409882,287.106720 62.911263,287.031067 
	C62.911263,287.031067 62.982067,287.017883 63.194344,286.638062 
	C62.908161,286.182465 62.409698,286.106720 61.911236,286.030975 
	C61.911236,286.030975 61.982071,286.017853 62.193993,285.638214 
	C61.907681,285.182678 61.409439,285.106781 60.911201,285.030884 
	C60.911205,285.030884 60.982037,285.017914 61.193344,284.638489 
	C60.906826,284.182983 60.408997,284.106903 59.911163,284.030823 
	C59.911167,284.030792 59.982025,284.017883 60.192928,283.638672 
	C59.906265,283.183197 59.408699,283.106964 58.911133,283.030701 
	C58.911137,283.030701 58.981995,283.017944 59.192467,282.638794 
	C58.905659,282.183319 58.408386,282.106964 57.911110,282.030609 
	C57.911110,282.030609 57.981998,282.017914 58.191982,281.638947 
	C57.905006,281.183502 57.408043,281.107025 56.911083,281.030548 
	C56.911083,281.030548 56.981960,281.017792 57.193008,280.642822 
	C56.906101,280.187134 56.408154,280.106384 55.910202,280.025635 
	C55.910202,280.025635 55.981819,280.017792 56.186317,279.655396 
	C55.898296,279.196747 55.405777,279.100555 54.913254,279.004333 
	C54.913254,279.004333 54.992237,279.010559 55.140594,278.766327 
	C54.897198,278.396942 54.505440,278.271790 54.113682,278.146606 
M62.290573,247.022736 
	C64.399590,243.282593 66.677765,239.623383 68.526558,235.758759 
	C69.180267,234.392258 69.418869,232.200684 68.771751,230.935974 
	C62.748260,219.163788 62.680279,219.198334 49.341084,219.203278 
	C48.010109,219.203766 46.648540,219.037094 45.357738,219.266418 
	C44.303959,219.453629 42.907703,219.838531 42.401070,220.616348 
	C40.065868,224.201508 37.842545,227.880859 35.913074,231.695358 
	C35.367836,232.773270 35.517708,234.648743 36.098927,235.769333 
	C38.073463,239.576218 40.363567,243.221115 42.583515,246.897476 
	C42.988892,247.568802 43.651604,248.630585 44.159920,248.610504 
	C50.030972,248.378601 55.895161,247.972885 62.290573,247.022736 
z"/>
<path fill="#092F46" opacity="1.000000" stroke="none" 
	d="
M174.877411,397.983765 
	C174.080444,397.411713 173.283478,396.839661 172.338623,395.703827 
	C173.523636,394.484222 174.851486,393.270172 176.190216,393.258057 
	C191.143280,393.122559 206.098053,393.172638 221.052353,393.172668 
	C245.643875,393.172760 270.235443,393.151733 294.826782,393.216248 
	C296.628723,393.220978 299.576172,391.944031 299.232300,395.832520 
	C292.218109,402.687225 285.153900,409.491638 278.200470,416.407471 
	C265.103363,429.433685 252.031448,442.485931 239.044724,455.621887 
	C236.613174,458.081329 234.835297,458.702393 232.086533,455.901520 
	C218.217590,441.769897 204.188126,427.795837 190.035675,413.030884 
	C189.214264,412.217499 188.572144,412.139740 187.930038,412.061981 
	C187.930038,412.061981 187.995850,412.018707 188.225647,411.629364 
	C187.938950,411.169098 187.422470,411.098175 186.905975,411.027252 
	C186.905975,411.027252 186.978989,411.020844 187.218002,410.630310 
	C186.939987,410.168854 186.422958,410.097961 185.905930,410.027100 
	C185.905930,410.027069 185.978958,410.020844 186.218140,409.630188 
	C185.940170,409.168701 185.423050,409.097870 184.905914,409.027008 
	C184.905914,409.027008 184.978943,409.020844 185.218170,408.630188 
	C184.940247,408.168701 184.423065,408.097839 183.905899,408.026978 
	C183.905899,408.026978 183.978943,408.020844 184.218170,407.630188 
	C183.940231,407.168701 183.423065,407.097870 182.905899,407.027008 
	C182.905899,407.027008 182.978958,407.020813 183.218140,406.630188 
	C182.940170,406.168732 182.423035,406.097870 181.905899,406.027008 
	C181.905899,406.027008 181.978958,406.020813 182.218079,405.630188 
	C181.940094,405.168701 181.423004,405.097839 180.905899,405.026978 
	C180.905899,405.026978 180.978928,405.020874 181.218018,404.630219 
	C180.940033,404.168671 180.422974,404.097778 179.905899,404.026917 
	C179.905899,404.026917 179.978958,404.020844 180.217987,403.630188 
	C179.939972,403.168671 179.422928,403.097778 178.905899,403.026855 
	C178.905899,403.026855 178.978989,403.020813 179.217957,402.630188 
	C178.939911,402.168640 178.422913,402.097717 177.905899,402.026825 
	C177.905899,402.026825 177.978973,402.020844 178.217926,401.630188 
	C177.939880,401.168579 177.422882,401.097656 176.905884,401.026733 
	C176.905884,401.026764 176.978989,401.020782 177.217865,400.630188 
	C176.939774,400.168640 176.422821,400.097687 175.905869,400.026703 
	C175.905869,400.026703 175.981003,400.003357 176.318726,399.787323 
	C176.063446,399.042114 175.470444,398.512939 174.877411,397.983765 
M225.090057,404.249115 
	C223.544373,406.932831 221.695755,409.495361 220.556900,412.341858 
	C219.765640,414.319580 219.052933,417.100098 219.841431,418.815918 
	C225.890686,431.979431 226.633591,432.300598 241.370514,431.860779 
	C244.609009,431.764130 254.019562,418.660004 253.076523,415.536011 
	C252.934814,415.066559 252.689774,414.617889 252.434158,414.194916 
	C249.965500,410.109619 247.484329,406.031921 244.941086,401.140686 
	C239.127213,400.884888 233.312790,400.496765 227.500061,400.520416 
	C226.657761,400.523834 225.823517,402.501373 225.090057,404.249115 
z"/>
<path fill="#062C44" opacity="1.000000" stroke="none" 
	d="
M183.027222,60.693672 
	C184.126480,59.526886 185.225723,58.360092 186.913315,57.007027 
	C188.001358,56.205097 188.501083,55.589439 189.000793,54.973782 
	C189.000793,54.973782 189.004883,55.007919 189.266663,54.887760 
	C190.031769,54.191601 190.535110,53.615604 191.263214,52.742939 
	C191.312546,52.270786 191.137131,52.095303 190.961700,51.919823 
	C190.961700,51.919823 190.981964,51.987823 191.369812,52.206699 
	C191.830170,51.920258 191.902679,51.414944 191.975189,50.909630 
	C191.975204,50.909630 191.981827,50.981823 192.366486,51.204239 
	C192.825867,50.920956 192.900589,50.415253 192.975311,49.909546 
	C192.975296,49.909546 192.981842,49.981739 193.366608,50.204540 
	C193.825928,49.921417 193.900513,49.415493 193.975098,48.909569 
	C193.975098,48.909569 193.981796,48.981716 194.366638,49.204834 
	C194.825974,48.921829 194.900482,48.415707 194.974976,47.909584 
	C194.974976,47.909584 194.981781,47.981709 195.366714,48.205086 
	C195.826065,47.922180 195.900482,47.415890 195.974915,46.909599 
	C195.974899,46.909599 195.981781,46.981709 196.366806,47.205341 
	C196.826157,46.922523 196.900497,46.416069 196.974823,45.909618 
	C196.974823,45.909618 196.981796,45.981701 197.366928,46.205605 
	C197.826294,45.922890 197.900513,45.416271 197.974747,44.909649 
	C197.974747,44.909649 197.981812,44.981709 198.367065,45.205887 
	C198.826431,44.923267 198.900543,44.416477 198.974655,43.909687 
	C198.974655,43.909687 198.981796,43.981701 199.367203,44.206181 
	C199.826584,43.923683 199.900574,43.416706 199.974548,42.909729 
	C199.974548,42.909729 199.981827,42.981724 200.367340,43.206532 
	C200.826721,42.924149 200.900574,42.416958 200.974426,41.909767 
	C200.974442,41.909767 200.981827,41.981720 201.367462,42.206913 
	C201.826843,41.924667 201.900604,41.417233 201.974350,40.909794 
	C201.974350,40.909794 201.981827,40.981724 202.367554,41.207283 
	C202.826965,40.925163 202.900635,40.417488 202.974289,39.909809 
	C202.974289,39.909809 202.981827,39.981731 203.367661,40.207520 
	C203.827057,39.925476 203.900635,39.417648 203.974213,38.909821 
	C203.974213,38.909821 203.981827,38.981728 204.367767,39.207733 
	C204.827164,38.925766 204.900620,38.417801 204.974091,37.909836 
	C204.974091,37.909836 204.981796,37.981709 205.367889,38.208004 
	C205.827316,37.926151 205.900635,37.418007 205.973938,36.909859 
	C205.973938,36.909859 205.981796,36.981701 206.368042,37.208412 
	C206.827454,36.926716 206.900604,36.418304 206.973770,35.909893 
	C206.973770,35.909893 206.981796,35.981686 207.368225,36.208843 
	C207.827637,35.927315 207.900620,35.418625 207.973602,34.909939 
	C207.973602,34.909939 207.981796,34.981686 208.368347,35.209278 
	C208.827759,34.927906 208.900620,34.418941 208.973480,33.909977 
	C208.973480,33.909977 209.002151,33.984543 209.180237,34.301594 
	C209.878235,34.104927 210.398163,33.591209 210.918091,33.077492 
	C213.703094,30.124514 216.488098,27.171534 219.995712,24.019697 
	C220.792633,23.190969 220.866928,22.561100 220.941238,21.931229 
	C220.941238,21.931229 220.981506,21.996010 221.368912,22.219091 
	C221.829468,21.930759 221.902618,21.419348 221.975769,20.907934 
	C221.975769,20.907934 221.980942,20.980818 222.368652,21.211483 
	C222.829498,20.930740 222.902634,20.419334 222.975769,19.907927 
	C222.975769,19.907927 222.980942,19.980808 223.368713,20.211498 
	C223.829559,19.930771 223.902649,19.419353 223.975723,18.907938 
	C223.975723,18.907938 223.980927,18.980803 224.368805,19.211624 
	C224.829666,18.930950 224.902649,18.419456 224.975616,17.907961 
	C224.975616,17.907961 224.980942,17.980806 225.368942,18.211887 
	C225.829788,17.931311 225.902649,17.419651 225.975494,16.907991 
	C225.975494,16.907991 225.980911,16.980795 226.369064,17.212219 
	C226.829941,16.931770 226.902664,16.419895 226.975388,15.908019 
	C226.975388,15.908019 226.980927,15.980798 227.369186,16.212587 
	C227.830063,15.932264 227.902679,15.420153 227.975296,14.908041 
	C227.975296,14.908041 227.980911,14.980775 228.369263,15.212874 
	C228.830139,14.932668 228.902679,14.420362 228.975204,13.908054 
	C228.975204,13.908054 228.980911,13.980779 229.369324,14.213133 
	C229.830200,13.933014 229.902664,13.420542 229.975113,12.908070 
	C229.975113,12.908070 229.980881,12.980757 230.369385,13.213356 
	C230.830261,12.933331 230.902649,12.420707 230.975037,11.908081 
	C230.975037,11.908081 230.980881,11.980751 231.369446,12.213596 
	C231.830338,11.933659 231.902664,11.420876 231.974991,10.908092 
	C231.974991,10.908092 231.980881,10.980747 232.369537,11.213866 
	C232.830444,10.934025 232.902710,10.421064 232.974960,9.908104 
	C232.974960,9.908103 232.990997,9.980672 233.279358,10.330217 
	C234.166916,10.436959 234.766083,10.194156 235.365265,9.951353 
	C237.118454,10.990136 239.174133,11.723295 240.579178,13.113848 
	C259.618683,31.957092 278.567871,50.891598 297.879059,70.224762 
	C298.500854,70.759163 298.783020,70.872353 299.065155,70.985535 
	C299.065155,70.985535 299.003571,70.998138 298.798584,71.248871 
	C298.643768,72.200745 298.693939,72.901894 298.292419,73.620895 
	C256.304810,73.637253 214.768890,73.635765 173.184235,73.302910 
	C174.308533,71.467461 175.459564,69.945534 176.659500,68.463203 
	C178.766266,65.860573 180.903015,63.282200 183.027222,60.693672 
M224.943085,61.271381 
	C225.893845,62.089630 226.820786,63.579952 227.799316,63.614643 
	C233.244629,63.807674 238.703064,63.672421 244.154419,63.541840 
	C244.454941,63.534637 244.732346,62.563049 245.521439,61.564129 
	C246.326157,60.173317 247.023285,58.705418 247.954712,57.405376 
	C251.513412,52.438225 254.416855,47.500854 250.106155,41.403694 
	C248.219757,38.735535 246.772217,35.757103 245.246399,33.128044 
	C241.977051,33.128044 238.824738,33.460739 235.769333,33.058067 
	C229.606720,32.245888 225.272858,33.712315 222.511047,39.966911 
	C220.307373,44.957474 217.560349,49.282875 222.175079,54.329830 
	C223.305099,55.565678 223.524567,57.634098 224.697739,59.332638 
	C224.811905,59.660133 224.926071,59.987629 225.066315,60.400814 
	C225.066315,60.400814 224.981567,60.429825 224.943085,61.271381 
z"/>
<path fill="#092F46" opacity="1.000000" stroke="none" 
	d="
M396.136841,168.984222 
	C396.136841,168.984222 396.480133,168.889145 396.697876,169.324951 
	C397.402466,169.851120 397.889282,169.941498 398.376129,170.031860 
	C407.335175,178.893051 416.386353,187.663452 425.230560,196.637817 
	C436.967133,208.547150 448.544525,220.613419 460.174225,232.627792 
	C460.503326,232.967789 460.650146,233.484207 460.951172,234.047928 
	C453.213684,241.966858 445.471283,249.887146 437.733643,257.812134 
	C435.232971,260.373322 432.806122,263.009796 430.240631,265.503937 
	C419.599976,275.848541 408.919189,286.151825 397.698181,296.642395 
	C396.789948,295.479553 396.129120,294.144867 396.127930,292.809601 
	C396.091187,251.534515 396.118988,210.259354 396.136841,168.984222 
M409.430145,241.298065 
	C409.430145,241.298065 409.726990,241.623184 410.026062,241.975433 
	C410.026062,241.975433 409.984467,242.435654 409.973053,243.270065 
	C410.933044,244.058975 411.870056,245.494186 412.856873,245.529297 
	C418.258972,245.721451 423.673859,245.595779 429.081970,245.472855 
	C429.407288,245.465485 429.711670,244.538528 430.540894,243.600357 
	C431.185272,242.639572 431.846100,241.689377 432.471497,240.716400 
	C439.016174,230.534973 439.043915,230.516617 432.811249,219.970169 
	C431.830444,218.310547 430.561005,215.694077 429.228485,215.566071 
	C423.626831,215.028030 417.819244,214.560684 412.367279,215.574509 
	C410.236633,215.970688 408.935120,220.401703 407.094482,222.874832 
	C403.837402,227.251083 402.612061,231.410233 407.004700,235.959274 
	C408.262695,237.262070 408.502441,239.548157 409.430145,241.298065 
z"/>
<path fill="#BCC6CC" opacity="1.000000" stroke="none" 
	d="
M89.810364,379.042267 
	C89.509598,377.529999 88.946251,376.017822 88.945580,374.505402 
	C88.903816,280.228882 88.902023,185.952332 88.958763,91.675812 
	C88.959717,90.095909 89.722374,88.516472 90.590042,87.337784 
	C91.069511,87.951309 91.088524,88.163849 90.975525,88.804947 
	C90.767921,90.392380 90.626297,91.551247 90.626167,92.710129 
	C90.615768,186.429321 90.614769,280.148499 90.630997,373.867706 
	C90.631256,375.354767 90.853035,376.841797 90.844513,378.537415 
	C90.458549,378.977570 90.156143,379.076324 89.810364,379.042267 
z"/>
<path fill="#F6F7F8" opacity="1.000000" stroke="none" 
	d="
M90.050262,379.418335 
	C90.156143,379.076324 90.458549,378.977570 91.314247,378.567810 
	C154.491058,378.393768 217.071213,378.388336 279.651367,378.406036 
	C313.104126,378.415527 346.556885,378.464935 380.123352,378.689514 
	C380.482117,379.224091 380.727203,379.565460 380.972260,379.906830 
	C340.514374,379.937866 300.056488,379.984650 259.598602,379.996124 
	C204.986923,380.011627 150.375229,380.001984 95.763550,379.991333 
	C93.939072,379.990997 92.114616,379.862915 90.050262,379.418335 
z"/>
<path fill="#EAEDEF" opacity="1.000000" stroke="none" 
	d="
M91.107544,88.376396 
	C91.088524,88.163849 91.069511,87.951309 91.034851,87.419052 
	C114.312920,87.066010 137.606644,87.007446 160.900360,87.004021 
	C233.947556,86.993271 306.994751,87.003296 380.349182,87.294022 
	C380.332458,87.798248 380.008575,88.013718 379.240356,88.290009 
	C282.899872,88.359367 187.003708,88.367882 91.107544,88.376396 
z"/>
<path fill="#BBC5CB" opacity="1.000000" stroke="none" 
	d="
M381.832428,90.999138 
	C381.888306,105.805840 381.983490,120.612511 381.992340,135.419235 
	C382.015198,173.694168 382.002380,211.969116 381.999359,250.244064 
	C381.996124,291.520752 381.987793,332.797424 381.717834,374.541077 
	C381.454010,375.008026 381.075897,375.017822 380.988068,374.555054 
	C380.888123,280.715942 380.875366,187.339584 380.872650,93.963234 
	C380.872620,92.970207 381.004608,91.977180 381.264313,90.988144 
	C381.453674,90.992134 381.832428,90.999138 381.832428,90.999138 
z"/>
<path fill="#C9D1D6" opacity="1.000000" stroke="none" 
	d="
M299.510437,395.666779 
	C299.576172,391.944031 296.628723,393.220978 294.826782,393.216248 
	C270.235443,393.151733 245.643875,393.172760 221.052353,393.172668 
	C206.098053,393.172638 191.143280,393.122559 176.190216,393.258057 
	C174.851486,393.270172 173.523636,394.484222 172.085938,395.544800 
	C171.222412,394.928192 170.463654,393.906799 169.223236,392.237030 
	C170.842484,392.095764 171.439423,391.998199 172.036346,391.998108 
	C213.776688,391.992279 255.517044,391.980408 297.257263,392.054108 
	C298.699493,392.056671 300.140259,392.921692 301.581696,393.384705 
	C300.984009,394.090149 300.386292,394.795624 299.510437,395.666779 
z"/>
<path fill="#E6E8EB" opacity="1.000000" stroke="none" 
	d="
M75.117310,297.412476 
	C75.313461,296.455719 75.681015,295.498962 75.681091,294.542206 
	C75.684303,253.066666 75.654968,211.591141 75.905510,169.610153 
	C76.414055,169.073685 76.646675,169.042648 76.879288,169.011612 
	C76.920128,211.403748 76.968079,253.795883 76.955299,296.188019 
	C76.955017,297.119080 76.260963,298.049927 75.453186,298.686279 
	C75.082237,298.068695 75.116066,297.742279 75.117310,297.412476 
z"/>
<path fill="#9CABB4" opacity="1.000000" stroke="none" 
	d="
M395.713623,169.134933 
	C396.118988,210.259354 396.091187,251.534515 396.127930,292.809601 
	C396.129120,294.144867 396.789948,295.479553 397.534454,296.938629 
	C397.318512,297.753113 396.711365,298.443481 395.727783,299.561920 
	C395.351288,298.477112 395.002380,297.940765 395.002167,297.404327 
	C394.984619,255.350113 394.993073,213.295898 395.014008,171.241684 
	C395.014343,170.589630 395.194305,169.937653 395.713623,169.134933 
z"/>
<path fill="#F9FAFB" opacity="1.000000" stroke="none" 
	d="
M173.232971,73.634270 
	C214.768890,73.635765 256.304810,73.637253 298.714996,73.731842 
	C300.157471,73.883919 300.725677,73.942902 301.293884,74.001892 
	C300.100677,74.334610 298.907776,74.956856 297.714203,74.958176 
	C255.582993,75.004753 213.451675,74.993454 171.320389,74.982460 
	C170.992889,74.982368 170.665405,74.874596 170.572937,74.247581 
	C171.616287,73.663475 172.424637,73.648872 173.232971,73.634270 
z"/>
<path fill="#7C919D" opacity="1.000000" stroke="none" 
	d="
M173.184235,73.302910 
	C172.424637,73.648872 171.616287,73.663475 170.421677,73.833023 
	C171.571655,71.841568 172.893311,69.490349 174.697693,67.599854 
	C177.032043,65.154114 179.751663,63.076099 182.666321,60.766716 
	C180.903015,63.282200 178.766266,65.860573 176.659500,68.463203 
	C175.459564,69.945534 174.308533,71.467461 173.184235,73.302910 
z"/>
<path fill="#BCC6CC" opacity="1.000000" stroke="none" 
	d="
M381.075897,375.017822 
	C381.075897,375.017822 381.454010,375.008026 381.643066,375.004486 
	C381.813965,376.609833 381.795746,378.218689 381.374878,379.867188 
	C380.727203,379.565460 380.482117,379.224091 380.320953,378.375061 
	C380.628540,376.917511 380.852234,375.967682 381.075897,375.017822 
z"/>
<path fill="#BCC6CC" opacity="1.000000" stroke="none" 
	d="
M381.906433,90.613434 
	C381.832428,90.999138 381.453674,90.992134 381.161682,90.688141 
	C380.474670,89.665825 380.079651,88.947502 379.684662,88.229187 
	C380.008575,88.013718 380.332458,87.798248 380.814270,87.337883 
	C381.308258,88.137894 381.644348,89.182808 381.906433,90.613434 
z"/>
<path fill="#7C919D" opacity="1.000000" stroke="none" 
	d="
M301.577393,73.888138 
	C300.725677,73.942902 300.157471,73.883919 299.166687,73.713982 
	C298.693939,72.901894 298.643768,72.200745 298.817749,71.223953 
	C299.981537,71.890335 300.921234,72.832359 301.577393,73.888138 
z"/>
<path fill="#CDD4D9" opacity="1.000000" stroke="none" 
	d="
M76.964455,168.651642 
	C76.646675,169.042648 76.414055,169.073685 75.833740,169.160919 
	C75.136543,169.351212 74.787048,169.485306 74.202118,169.437073 
	C74.994324,168.933701 76.021973,168.612686 76.964455,168.651642 
z"/>
<path fill="#7C919D" opacity="1.000000" stroke="none" 
	d="
M191.038452,53.039604 
	C190.535110,53.615604 190.031769,54.191601 189.249664,54.885162 
	C189.229248,54.430191 189.487610,53.857658 190.214478,53.061066 
	C190.683014,52.837002 191.038452,53.039600 191.038452,53.039604 
z"/>
<path fill="#CDD4D9" opacity="1.000000" stroke="none" 
	d="
M74.746605,297.138123 
	C75.116066,297.742279 75.082237,298.068695 75.013519,298.638062 
	C74.359085,298.476929 73.706970,298.069458 72.990631,297.358429 
	C73.409576,296.991180 73.892746,296.927490 74.746605,297.138123 
z"/>
<path fill="#7C919D" opacity="1.000000" stroke="none" 
	d="
M188.770325,55.153934 
	C188.501083,55.589439 188.001358,56.205097 187.203033,56.913540 
	C187.449570,56.448910 187.994705,55.891499 188.770325,55.153934 
z"/>
<path fill="#DCE1E5" opacity="1.000000" stroke="none" 
	d="
M188.023956,412.380798 
	C188.572144,412.139740 189.214264,412.217499 189.939758,412.715637 
	C189.388077,412.990570 188.752975,412.845093 188.023956,412.380798 
z"/>
<path fill="#D6DCE0" opacity="1.000000" stroke="none" 
	d="
M220.623199,22.021948 
	C220.866928,22.561100 220.792633,23.190969 220.310303,23.916290 
	C220.036591,23.378716 220.170883,22.745691 220.623199,22.021948 
z"/>
<path fill="#D6DCE0" opacity="1.000000" stroke="none" 
	d="
M235.218323,9.641182 
	C234.766083,10.194156 234.166916,10.436959 233.246216,10.313438 
	C233.640244,9.741746 234.355804,9.536380 235.218323,9.641182 
z"/>
<path fill="#DCE1E5" opacity="1.000000" stroke="none" 
	d="
M174.951447,398.306824 
	C175.470444,398.512939 176.063446,399.042114 176.296936,399.820068 
	C175.633453,399.589172 175.329468,399.109528 174.951447,398.306824 
z"/>
<path fill="#D1D8DD" opacity="1.000000" stroke="none" 
	d="
M210.598450,33.054962 
	C210.398163,33.591209 209.878235,34.104927 209.148926,34.276787 
	C209.385956,33.634094 209.832367,33.333263 210.598450,33.054962 
z"/>
<path fill="#CDD4D9" opacity="1.000000" stroke="none" 
	d="
M64.959229,289.311157 
	C65.410240,289.106689 65.909187,289.182129 66.188332,289.673096 
	C65.648071,289.922760 65.327621,289.756927 64.959229,289.311157 
z"/>
<path fill="#CDD4D9" opacity="1.000000" stroke="none" 
	d="
M57.959190,282.310669 
	C58.408386,282.106964 58.905659,282.183319 59.186028,282.674225 
	C58.648502,282.922729 58.327888,282.756714 57.959190,282.310669 
z"/>
<path fill="#DCE1E5" opacity="1.000000" stroke="none" 
	d="
M183.963104,408.303528 
	C184.423065,408.097839 184.940247,408.168701 185.214905,408.666687 
	C184.655029,408.922577 184.337662,408.751312 183.963104,408.303528 
z"/>
<path fill="#DCE1E5" opacity="1.000000" stroke="none" 
	d="
M184.963013,409.303589 
	C185.423050,409.097870 185.940170,409.168701 186.214813,409.666687 
	C185.654922,409.922607 185.337509,409.751373 184.963013,409.303589 
z"/>
<path fill="#CDD4D9" opacity="1.000000" stroke="none" 
	d="
M66.959267,291.311157 
	C67.410637,291.106598 67.909950,291.181854 68.188843,291.672852 
	C67.648010,291.922729 67.327614,291.756897 66.959267,291.311157 
z"/>
<path fill="#CDD4D9" opacity="1.000000" stroke="none" 
	d="
M65.959244,290.311157 
	C66.410439,290.106628 66.909584,290.181976 67.188583,290.672974 
	C66.648033,290.922760 66.327614,290.756897 65.959244,290.311157 
z"/>
<path fill="#DCE1E5" opacity="1.000000" stroke="none" 
	d="
M185.962738,410.303772 
	C186.422958,410.097961 186.939987,410.168854 187.214584,410.666748 
	C186.654617,410.922668 186.337082,410.751556 185.962738,410.303772 
z"/>
<path fill="#DCE1E5" opacity="1.000000" stroke="none" 
	d="
M186.962128,411.304321 
	C187.422470,411.098175 187.938950,411.169098 188.213745,411.666901 
	C187.654144,411.922974 187.336227,411.752197 186.962128,411.304321 
z"/>
<path fill="#D6DCE0" opacity="1.000000" stroke="none" 
	d="
M224.697067,17.962450 
	C224.902649,18.419456 224.829666,18.930950 224.332397,19.208920 
	C224.078232,18.655909 224.248367,18.336424 224.697067,17.962450 
z"/>
<path fill="#CDD4D9" opacity="1.000000" stroke="none" 
	d="
M71.959518,296.311005 
	C72.410957,296.106415 72.910568,296.181549 73.189346,296.672607 
	C72.648239,296.922607 72.327965,296.756683 71.959518,296.311005 
z"/>
<path fill="#CDD4D9" opacity="1.000000" stroke="none" 
	d="
M63.959213,288.311096 
	C64.410057,288.106689 64.908844,288.182220 65.188103,288.673157 
	C64.648102,288.922760 64.327621,288.756897 63.959213,288.311096 
z"/>
<path fill="#CDD4D9" opacity="1.000000" stroke="none" 
	d="
M62.959209,287.311035 
	C63.409882,287.106720 63.908504,287.182343 64.187881,287.673279 
	C63.648148,287.922729 63.327656,287.756866 62.959209,287.311035 
z"/>
<path fill="#CDD4D9" opacity="1.000000" stroke="none" 
	d="
M61.959217,286.310913 
	C62.409698,286.106720 62.908161,286.182465 63.187668,286.673431 
	C62.648209,286.922729 62.327705,286.756805 61.959217,286.310913 
z"/>
<path fill="#CDD4D9" opacity="1.000000" stroke="none" 
	d="
M60.959221,285.310883 
	C61.409439,285.106781 61.907681,285.182678 62.187363,285.673645 
	C61.648281,285.922760 61.327759,285.756805 60.959221,285.310883 
z"/>
<path fill="#CDD4D9" opacity="1.000000" stroke="none" 
	d="
M59.959209,284.310791 
	C60.408997,284.106903 60.906826,284.182983 61.186790,284.673889 
	C60.648369,284.922760 60.327812,284.756775 59.959209,284.310791 
z"/>
<path fill="#CDD4D9" opacity="1.000000" stroke="none" 
	d="
M58.959190,283.310730 
	C59.408699,283.106964 59.906265,283.183197 60.186424,283.674072 
	C59.648426,283.922760 59.327839,283.756744 58.959190,283.310730 
z"/>
<path fill="#DCE1E5" opacity="1.000000" stroke="none" 
	d="
M182.963074,407.303528 
	C183.423065,407.097870 183.940231,407.168701 184.214920,407.666687 
	C183.655045,407.922577 183.337662,407.751343 182.963074,407.303528 
z"/>
<path fill="#DCE1E5" opacity="1.000000" stroke="none" 
	d="
M181.963043,406.303589 
	C182.423035,406.097870 182.940170,406.168732 183.214874,406.666687 
	C182.655029,406.922607 182.337601,406.751373 181.963043,406.303589 
z"/>
<path fill="#DCE1E5" opacity="1.000000" stroke="none" 
	d="
M180.963028,405.303528 
	C181.423004,405.097839 181.940094,405.168701 182.214828,405.666687 
	C181.655014,405.922577 181.337585,405.751343 180.963028,405.303528 
z"/>
<path fill="#CDD4D9" opacity="1.000000" stroke="none" 
	d="
M67.959290,292.311249 
	C68.410759,292.106567 68.910187,292.181702 69.188995,292.672729 
	C68.648010,292.922729 68.327637,292.756897 67.959290,292.311249 
z"/>
<path fill="#CDD4D9" opacity="1.000000" stroke="none" 
	d="
M68.959320,293.311249 
	C69.410812,293.106537 69.910271,293.181610 70.189079,293.672607 
	C69.648048,293.922729 69.327675,293.756897 68.959320,293.311249 
z"/>
<path fill="#DCE1E5" opacity="1.000000" stroke="none" 
	d="
M179.963043,404.303497 
	C180.422974,404.097778 180.940033,404.168671 181.214783,404.666718 
	C180.655045,404.922607 180.337601,404.751343 179.963043,404.303497 
z"/>
<path fill="#DCE1E5" opacity="1.000000" stroke="none" 
	d="
M178.963074,403.303436 
	C179.422928,403.097778 179.939972,403.168671 180.214752,403.666718 
	C179.655106,403.922577 179.337677,403.751312 178.963074,403.303436 
z"/>
<path fill="#D6DCE0" opacity="1.000000" stroke="none" 
	d="
M232.696350,9.962124 
	C232.902710,10.421064 232.830444,10.934025 232.333221,11.210791 
	C232.078079,10.655112 232.247910,10.335629 232.696350,9.962124 
z"/>
<path fill="#CDD4D9" opacity="1.000000" stroke="none" 
	d="
M69.959373,294.311218 
	C70.410828,294.106506 70.910316,294.181580 71.189133,294.672607 
	C70.648109,294.922699 70.327751,294.756836 69.959373,294.311218 
z"/>
<path fill="#DCE1E5" opacity="1.000000" stroke="none" 
	d="
M177.963135,402.303375 
	C178.422913,402.097717 178.939911,402.168640 179.214752,402.666748 
	C178.655167,402.922577 178.337769,402.751251 177.963135,402.303375 
z"/>
<path fill="#CDD4D9" opacity="1.000000" stroke="none" 
	d="
M70.959442,295.311127 
	C71.410873,295.106476 71.910400,295.181580 72.189224,295.672638 
	C71.648186,295.922668 71.327866,295.756775 70.959442,295.311127 
z"/>
<path fill="#DCE1E5" opacity="1.000000" stroke="none" 
	d="
M176.963181,401.303253 
	C177.422882,401.097656 177.939880,401.168579 178.214752,401.666687 
	C177.655258,401.922516 177.337860,401.751129 176.963181,401.303253 
z"/>
<path fill="#DCE1E5" opacity="1.000000" stroke="none" 
	d="
M175.963211,400.303223 
	C176.422821,400.097687 176.939774,400.168640 177.214691,400.666748 
	C176.655304,400.922516 176.337921,400.751129 175.963211,400.303223 
z"/>
<path fill="#D6DCE0" opacity="1.000000" stroke="none" 
	d="
M231.696381,10.962135 
	C231.902664,11.420876 231.830338,11.933659 231.333130,12.210552 
	C231.078079,11.655168 231.247925,11.335672 231.696381,10.962135 
z"/>
<path fill="#D6DCE0" opacity="1.000000" stroke="none" 
	d="
M230.696426,11.962170 
	C230.902649,12.420707 230.830261,12.933331 230.333038,13.210352 
	C230.078079,12.655251 230.247955,12.335754 230.696426,11.962170 
z"/>
<path fill="#7C919D" opacity="1.000000" stroke="none" 
	d="
M298.985413,70.771950 
	C298.783020,70.872353 298.500854,70.759163 298.184875,70.383835 
	C298.491119,70.114250 298.742676,70.259804 298.985413,70.771950 
z"/>
<path fill="#D1D8DD" opacity="1.000000" stroke="none" 
	d="
M204.694885,37.961884 
	C204.900620,38.417801 204.827164,38.925766 204.331818,39.203835 
	C204.078537,38.653934 204.247116,38.333935 204.694885,37.961884 
z"/>
<path fill="#9CABB4" opacity="1.000000" stroke="none" 
	d="
M398.194244,169.746552 
	C397.889282,169.941498 397.402466,169.851120 396.870789,169.367676 
	C397.221436,169.136810 397.616882,169.299011 398.194244,169.746552 
z"/>
<path fill="#D1D8DD" opacity="1.000000" stroke="none" 
	d="
M203.695007,38.961891 
	C203.900635,39.417648 203.827057,39.925476 203.331711,40.203655 
	C203.078537,39.653988 203.247162,39.333973 203.695007,38.961891 
z"/>
<path fill="#D1D8DD" opacity="1.000000" stroke="none" 
	d="
M202.695068,39.961891 
	C202.900635,40.417488 202.826965,40.925163 202.331604,41.203453 
	C202.078552,40.654037 202.247192,40.334007 202.695068,39.961891 
z"/>
<path fill="#D1D8DD" opacity="1.000000" stroke="none" 
	d="
M201.695129,40.961914 
	C201.900604,41.417233 201.826843,41.924667 201.331482,42.203140 
	C201.078552,41.654129 201.247223,41.334084 201.695129,40.961914 
z"/>
<path fill="#D1D8DD" opacity="1.000000" stroke="none" 
	d="
M200.695221,41.961975 
	C200.900574,42.416958 200.826721,42.924149 200.331360,43.202816 
	C200.078552,42.654259 200.247269,42.334221 200.695221,41.961975 
z"/>
<path fill="#D1D8DD" opacity="1.000000" stroke="none" 
	d="
M199.695374,42.962055 
	C199.900574,43.416706 199.826584,43.923683 199.331207,44.202530 
	C199.078583,43.654396 199.247375,43.334389 199.695374,42.962055 
z"/>
<path fill="#D1D8DD" opacity="1.000000" stroke="none" 
	d="
M198.695496,43.962128 
	C198.900543,44.416477 198.826431,44.923267 198.331024,45.202278 
	C198.078613,44.654518 198.247482,44.334545 198.695496,43.962128 
z"/>
<path fill="#D1D8DD" opacity="1.000000" stroke="none" 
	d="
M205.694748,36.961853 
	C205.900635,37.418007 205.827316,37.926151 205.331970,38.204063 
	C205.078476,37.653839 205.247025,37.333843 205.694748,36.961853 
z"/>
<path fill="#D1D8DD" opacity="1.000000" stroke="none" 
	d="
M197.695618,44.962173 
	C197.900513,45.416271 197.826294,45.922890 197.330902,46.202042 
	C197.078659,45.654613 197.247574,45.334656 197.695618,44.962173 
z"/>
<path fill="#D1D8DD" opacity="1.000000" stroke="none" 
	d="
M191.263214,52.742935 
	C191.038452,53.039600 190.683014,52.837002 190.489014,52.902233 
	C190.362137,52.682301 190.429245,52.397137 190.729034,52.015900 
	C191.137131,52.095303 191.312546,52.270786 191.263214,52.742935 
z"/>
<path fill="#D1D8DD" opacity="1.000000" stroke="none" 
	d="
M191.694702,50.964188 
	C191.902679,51.414944 191.830170,51.920258 191.334320,52.206703 
	C191.078735,51.664799 191.246475,51.341770 191.694702,50.964188 
z"/>
<path fill="#D1D8DD" opacity="1.000000" stroke="none" 
	d="
M192.696289,49.962605 
	C192.900589,50.415253 192.825867,50.920956 192.330383,51.201004 
	C192.078842,50.655457 192.248062,50.335560 192.696289,49.962605 
z"/>
<path fill="#D1D8DD" opacity="1.000000" stroke="none" 
	d="
M193.696014,48.962379 
	C193.900513,49.415493 193.825928,49.921417 193.330505,50.201214 
	C193.078751,49.655121 193.247849,49.335155 193.696014,48.962379 
z"/>
<path fill="#D1D8DD" opacity="1.000000" stroke="none" 
	d="
M194.695862,47.962265 
	C194.900482,48.415707 194.825974,48.921829 194.330566,49.201416 
	C194.078690,48.654900 194.247711,48.334923 194.695862,47.962265 
z"/>
<path fill="#D1D8DD" opacity="1.000000" stroke="none" 
	d="
M195.695770,46.962212 
	C195.900482,47.415890 195.826065,47.922180 195.330658,48.201603 
	C195.078674,47.654770 195.247650,47.334801 195.695770,46.962212 
z"/>
<path fill="#D6DCE0" opacity="1.000000" stroke="none" 
	d="
M226.696793,15.962320 
	C226.902664,16.419895 226.829941,16.931770 226.332672,17.209404 
	C226.078140,16.655649 226.248169,16.336136 226.696793,15.962320 
z"/>
<path fill="#D6DCE0" opacity="1.000000" stroke="none" 
	d="
M229.696518,12.962212 
	C229.902664,13.420542 229.830200,13.933014 229.332977,14.210165 
	C229.078110,13.655348 229.248016,13.335851 229.696518,12.962212 
z"/>
<path fill="#CDD4D9" opacity="1.000000" stroke="none" 
	d="
M55.957916,280.306519 
	C56.408154,280.106384 56.906101,280.187134 57.186401,280.678223 
	C56.647709,280.921539 56.326672,280.754486 55.957916,280.306519 
z"/>
<path fill="#CDD4D9" opacity="1.000000" stroke="none" 
	d="
M54.963966,279.285034 
	C55.405777,279.100555 55.898296,279.196747 56.181244,279.691040 
	C55.652672,279.914673 55.333675,279.740234 54.963966,279.285034 
z"/>
<path fill="#CDD4D9" opacity="1.000000" stroke="none" 
	d="
M54.173660,278.366699 
	C54.505440,278.271790 54.897198,278.396942 55.136066,278.805664 
	C54.686241,278.992035 54.436394,278.824524 54.173660,278.366699 
z"/>
<path fill="#D6DCE0" opacity="1.000000" stroke="none" 
	d="
M228.696609,13.962258 
	C228.902679,14.420362 228.830139,14.932668 228.332886,15.209959 
	C228.078125,14.655449 228.248062,14.335956 228.696609,13.962258 
z"/>
<path fill="#D6DCE0" opacity="1.000000" stroke="none" 
	d="
M227.696701,14.962292 
	C227.902679,15.420153 227.830063,15.932264 227.332794,16.209711 
	C227.078140,15.655544 227.248123,15.336043 227.696701,14.962292 
z"/>
<path fill="#CDD4D9" opacity="1.000000" stroke="none" 
	d="
M56.959190,281.310608 
	C57.408043,281.107025 57.905006,281.183502 58.185589,281.674377 
	C57.648571,281.922760 57.327934,281.756714 56.959190,281.310608 
z"/>
<path fill="#D6DCE0" opacity="1.000000" stroke="none" 
	d="
M225.696899,16.962381 
	C225.902649,17.419651 225.829788,17.931311 225.332520,18.209129 
	C225.078171,17.655785 225.248245,17.336279 225.696899,16.962381 
z"/>
<path fill="#D1D8DD" opacity="1.000000" stroke="none" 
	d="
M196.695694,45.962193 
	C196.900497,46.416069 196.826157,46.922523 196.330765,47.201813 
	C196.078659,46.654686 196.247620,46.334724 196.695694,45.962193 
z"/>
<path fill="#D6DCE0" opacity="1.000000" stroke="none" 
	d="
M223.697189,18.962498 
	C223.902649,19.419353 223.829559,19.930771 223.332275,20.208809 
	C223.078262,19.655972 223.248459,19.336514 223.697189,18.962498 
z"/>
<path fill="#D6DCE0" opacity="1.000000" stroke="none" 
	d="
M222.697220,19.962479 
	C222.902634,20.419334 222.829498,20.930740 222.332214,21.208780 
	C222.078262,20.655951 222.248474,20.336489 222.697220,19.962479 
z"/>
<path fill="#D6DCE0" opacity="1.000000" stroke="none" 
	d="
M221.697174,20.962410 
	C221.902618,21.419348 221.829468,21.930759 221.332199,22.208771 
	C221.078262,21.655874 221.248428,21.336380 221.697174,20.962410 
z"/>
<path fill="#D1D8DD" opacity="1.000000" stroke="none" 
	d="
M208.694229,33.961594 
	C208.900620,34.418941 208.827759,34.927906 208.332489,35.205101 
	C208.078369,34.653286 208.246674,34.333248 208.694229,33.961594 
z"/>
<path fill="#D1D8DD" opacity="1.000000" stroke="none" 
	d="
M207.694382,34.961700 
	C207.900620,35.418625 207.827637,35.927315 207.332336,36.204750 
	C207.078400,35.653488 207.246780,35.333473 207.694382,34.961700 
z"/>
<path fill="#D1D8DD" opacity="1.000000" stroke="none" 
	d="
M206.694580,35.961792 
	C206.900604,36.418304 206.827454,36.926716 206.332138,37.204395 
	C206.078430,36.653671 206.246902,36.333679 206.694580,35.961792 
z"/>
<path fill="#000000" opacity="1.000000" stroke="none" 
	d="
M62.025875,247.318039 
	C55.895161,247.972885 50.030972,248.378601 44.159920,248.610504 
	C43.651604,248.630585 42.988892,247.568802 42.583515,246.897476 
	C40.363567,243.221115 38.073463,239.576218 36.098927,235.769333 
	C35.517708,234.648743 35.367836,232.773270 35.913074,231.695358 
	C37.842545,227.880859 40.065868,224.201508 42.401070,220.616348 
	C42.907703,219.838531 44.303959,219.453629 45.357738,219.266418 
	C46.648540,219.037094 48.010109,219.203766 49.341084,219.203278 
	C62.680279,219.198334 62.748260,219.163788 68.771751,230.935974 
	C69.418869,232.200684 69.180267,234.392258 68.526558,235.758759 
	C66.677765,239.623383 64.399590,243.282593 62.025875,247.318039 
M51.494759,223.976181 
	C45.626038,224.018875 41.315994,229.122620 42.379368,234.770203 
	C43.509163,240.770554 48.205589,244.734818 53.393753,244.067490 
	C57.092621,243.591705 63.058266,237.399475 62.983513,233.727844 
	C62.893417,229.302979 58.085842,223.368744 51.494759,223.976181 
z"/>
<path fill="#000000" opacity="1.000000" stroke="none" 
	d="
M245.006729,401.952026 
	C247.484329,406.031921 249.965500,410.109619 252.434158,414.194916 
	C252.689774,414.617889 252.934814,415.066559 253.076523,415.536011 
	C254.019562,418.660004 244.609009,431.764130 241.370514,431.860779 
	C226.633591,432.300598 225.890686,431.979431 219.841431,418.815918 
	C219.052933,417.100098 219.765640,414.319580 220.556900,412.341858 
	C221.695755,409.495361 223.544373,406.932831 225.456787,403.779755 
	C227.495544,402.905426 229.155670,402.220825 230.841934,402.148895 
	C235.557739,401.947723 240.284378,401.999878 245.006729,401.952026 
M229.353027,408.722565 
	C226.257874,411.399689 224.623474,417.120514 226.148575,419.938934 
	C229.155655,425.496094 233.835571,428.569885 237.894043,426.440033 
	C241.073914,424.771301 244.298203,421.787628 245.745209,418.592285 
	C247.336761,415.077667 245.738571,411.068542 242.124237,408.652191 
	C238.204895,406.031921 234.149368,406.011993 229.353027,408.722565 
z"/>
<path fill="#BCC6CC" opacity="1.000000" stroke="none" 
	d="
M244.973907,401.546356 
	C240.284378,401.999878 235.557739,401.947723 230.841934,402.148895 
	C229.155670,402.220825 227.495544,402.905426 225.404526,403.437897 
	C225.823517,402.501373 226.657761,400.523834 227.500061,400.520416 
	C233.312790,400.496765 239.127213,400.884888 244.973907,401.546356 
z"/>
<path fill="#000000" opacity="1.000000" stroke="none" 
	d="
M224.162659,59.319736 
	C223.524567,57.634098 223.305099,55.565678 222.175079,54.329830 
	C217.560349,49.282875 220.307373,44.957474 222.511047,39.966911 
	C225.272858,33.712315 229.606720,32.245888 235.769333,33.058067 
	C238.824738,33.460739 241.977051,33.128044 245.246399,33.128044 
	C246.772217,35.757103 248.219757,38.735535 250.106155,41.403694 
	C254.416855,47.500854 251.513412,52.438225 247.954712,57.405376 
	C247.023285,58.705418 246.326157,60.173317 244.801880,61.749626 
	C237.715408,61.433357 231.348495,60.931591 224.981567,60.429825 
	C224.981567,60.429825 225.066315,60.400814 224.902557,60.165855 
	C224.665512,59.613853 224.473465,59.410133 224.162659,59.319736 
M232.948654,57.673428 
	C234.713120,57.664497 237.049469,58.372131 238.131714,57.508396 
	C241.041183,55.186409 244.259247,52.584229 245.756241,49.352764 
	C247.163940,46.314041 246.118454,42.483223 242.692139,40.231499 
	C236.768188,36.338371 230.185364,37.318596 227.045746,42.646648 
	C224.106995,47.633854 225.728271,54.457489 232.948654,57.673428 
z"/>
<path fill="#C5CED3" opacity="1.000000" stroke="none" 
	d="
M224.962326,60.850601 
	C231.348495,60.931591 237.715408,61.433357 244.551422,61.987740 
	C244.732346,62.563049 244.454941,63.534637 244.154419,63.541840 
	C238.703064,63.672421 233.244629,63.807674 227.799316,63.614643 
	C226.820786,63.579952 225.893845,62.089630 224.962326,60.850601 
z"/>
<path fill="#C5CED3" opacity="1.000000" stroke="none" 
	d="
M224.430206,59.326187 
	C224.473465,59.410133 224.665512,59.613853 224.889526,60.123009 
	C224.926071,59.987629 224.811905,59.660133 224.430206,59.326187 
z"/>
<path fill="#000000" opacity="1.000000" stroke="none" 
	d="
M409.984467,242.435654 
	C409.984467,242.435654 410.026062,241.975433 409.778992,241.791214 
	C409.531921,241.606995 409.209076,241.383362 409.209076,241.383362 
	C408.502441,239.548157 408.262695,237.262070 407.004700,235.959274 
	C402.612061,231.410233 403.837402,227.251083 407.094482,222.874832 
	C408.935120,220.401703 410.236633,215.970688 412.367279,215.574509 
	C417.819244,214.560684 423.626831,215.028030 429.228485,215.566071 
	C430.561005,215.694077 431.830444,218.310547 432.811249,219.970169 
	C439.043915,230.516617 439.016174,230.534973 432.471497,240.716400 
	C431.846100,241.689377 431.185272,242.639572 429.814758,243.759430 
	C422.720581,243.424225 416.352539,242.929947 409.984467,242.435654 
M423.687012,220.364975 
	C416.354095,219.219025 412.621399,221.755692 410.822021,228.393677 
	C409.417084,233.576736 414.495148,238.345871 418.632355,239.765411 
	C422.576385,241.118637 429.345978,237.471924 430.915131,233.354446 
	C432.841888,228.298508 430.384857,223.543320 423.687012,220.364975 
z"/>
<path fill="#BCC6CC" opacity="1.000000" stroke="none" 
	d="
M409.978760,242.852859 
	C416.352539,242.929947 422.720581,243.424225 429.557251,243.978989 
	C429.711670,244.538528 429.407288,245.465485 429.081970,245.472855 
	C423.673859,245.595779 418.258972,245.721451 412.856873,245.529297 
	C411.870056,245.494186 410.933044,244.058975 409.978760,242.852859 
z"/>
<path fill="#BCC6CC" opacity="1.000000" stroke="none" 
	d="
M409.319611,241.340714 
	C409.209076,241.383362 409.531921,241.606995 409.629456,241.615082 
	C409.726990,241.623184 409.430145,241.298065 409.319611,241.340714 
z"/>
<path fill="#042A42" opacity="1.000000" stroke="none" 
	d="
M379.240356,88.290016 
	C380.079651,88.947502 380.474670,89.665825 380.972321,90.684151 
	C381.004608,91.977180 380.872620,92.970207 380.872650,93.963234 
	C380.875366,187.339584 380.888123,280.715942 380.988068,374.555054 
	C380.852234,375.967682 380.628540,376.917511 380.207275,378.181854 
	C346.556885,378.464935 313.104126,378.415527 279.651367,378.406036 
	C217.071213,378.388336 154.491058,378.393768 91.441177,378.359192 
	C90.853035,376.841797 90.631256,375.354767 90.630997,373.867706 
	C90.614769,280.148499 90.615768,186.429321 90.626167,92.710129 
	C90.626297,91.551247 90.767921,90.392380 90.975525,88.804947 
	C187.003708,88.367882 282.899872,88.359367 379.240356,88.290016 
M266.358521,254.243912 
	C265.872986,254.166031 265.387451,254.088150 264.995331,254.004837 
	C264.995331,254.004837 264.999268,254.098312 265.320648,253.274002 
	C256.432037,253.274002 247.543442,253.274002 238.654846,253.274002 
	C238.326294,253.577423 237.997757,253.880859 237.669205,254.184280 
	C238.426193,254.444931 239.183182,254.705582 240.295654,255.540680 
	C246.049210,262.339111 251.876663,269.077087 257.514709,275.970001 
	C259.392792,278.266113 260.388275,280.605072 258.844452,284.069366 
	C257.461884,287.171844 256.986115,291.234711 257.629730,294.581665 
	C259.729706,305.501709 267.793579,311.127258 277.495636,314.780884 
	C280.510284,315.916138 283.749176,316.455872 286.885376,317.268250 
	C283.360748,311.595001 279.466675,307.128204 275.871735,302.432434 
	C273.080933,298.787018 272.656891,294.972717 276.192383,291.312897 
	C282.721191,284.554535 289.020447,282.184357 293.367096,285.066467 
	C294.145813,285.582825 294.660187,286.504608 295.279572,287.253326 
	C298.975433,291.720947 302.666260,296.192749 306.984497,301.420654 
	C307.450500,299.290131 307.807098,298.373413 307.828552,297.448914 
	C308.005341,289.840973 305.695831,282.820251 301.771729,276.502045 
	C296.342010,267.759583 289.135620,264.096619 281.067596,266.375519 
	C277.107880,267.493988 275.051453,266.053711 272.936584,263.592621 
	C270.795990,261.101593 268.839935,258.451996 266.789917,255.251389 
	C266.493439,255.169403 266.196991,255.087418 265.996613,254.996552 
	C265.996613,254.996552 266.005890,255.092636 266.358521,254.243912 
M244.976776,222.974899 
	C244.976776,222.974899 245.073929,222.974884 244.310501,223.109283 
	C243.873276,224.748245 243.436050,226.387192 242.419373,227.616043 
	C240.703232,224.016953 235.944031,221.412933 232.428848,222.816086 
	C229.170868,224.116577 228.700256,227.218887 229.098343,230.523926 
	C229.311890,232.296783 229.033401,234.128922 228.085449,235.882401 
	C226.158142,235.882401 224.230850,235.882401 222.374069,235.882401 
	C221.872696,231.182373 221.437836,227.105865 220.148407,223.025574 
	C219.005844,223.047241 217.863297,223.068893 216.075470,223.433319 
	C215.857040,228.474380 215.519547,233.515915 215.539536,238.556030 
	C215.542816,239.378281 217.090927,240.854645 217.983170,240.900635 
	C222.205002,241.118256 226.765793,242.175552 230.275879,238.564880 
	C235.014893,242.671036 239.440750,241.415512 243.499619,235.233688 
	C243.970154,236.786011 244.440704,238.338333 245.338379,240.325119 
	C246.165054,239.560608 247.063507,238.858597 247.798737,238.014435 
	C248.574219,237.124069 249.193939,236.098038 249.881699,235.131256 
	C250.640747,236.037079 251.277069,237.101151 252.189697,237.808990 
	C253.350861,238.709610 254.735779,239.321701 256.377899,240.582306 
	C257.263336,240.336380 258.148804,240.090454 259.465302,239.935852 
	C259.465302,239.935852 259.903992,239.894730 260.403412,240.499832 
	C263.577881,240.329727 266.752350,240.159607 270.496613,240.194489 
	C271.604004,240.082169 272.711426,239.969849 274.283569,240.305588 
	C278.482697,239.639832 282.681854,238.974091 287.389069,238.227783 
	C287.772980,238.494278 288.844025,239.439102 290.093292,239.935669 
	C290.343964,240.035309 291.774475,238.448212 291.805115,237.607605 
	C291.977509,232.878311 291.888306,228.139481 291.888306,223.244370 
	C289.370270,223.244370 287.600311,223.244370 286.301727,223.244370 
	C284.987122,225.329865 283.893951,227.064056 282.800781,228.798248 
	C281.355774,223.482040 278.280518,222.312622 273.361664,222.801422 
	C272.543152,222.565598 271.724609,222.329773 270.009033,221.974380 
	C268.042572,221.961929 266.029968,221.683151 264.122925,222.013672 
	C262.299988,222.329605 260.586853,223.279388 258.164001,223.884827 
	C256.776672,223.256210 255.389328,222.627609 253.107376,221.951599 
	C250.394638,222.324997 247.681885,222.698380 244.976776,222.974899 
M358.023529,222.974045 
	C358.023529,222.974045 358.034546,223.074158 357.823944,222.258896 
	C355.175415,222.515884 352.526855,222.772873 349.268738,222.766953 
	C344.907654,222.040787 345.154846,224.885574 344.924316,227.897263 
	C344.654358,231.424332 346.913757,236.056244 340.875763,238.245911 
	C340.485321,236.418259 339.980804,234.926392 339.884491,233.408630 
	C339.727570,230.934113 340.016266,228.422989 339.746216,225.968094 
	C339.637756,224.982025 338.549164,224.103790 337.906647,223.176468 
	C337.278290,224.132172 336.171509,225.057755 336.109100,226.049088 
	C335.901459,229.346436 335.858917,232.685852 336.147217,235.974579 
	C336.488708,239.869797 339.055908,241.530792 342.728882,240.734192 
	C344.910034,240.261124 346.904449,238.927170 349.616577,238.202026 
	C350.380890,238.769363 351.145172,239.336700 352.335938,240.335831 
	C357.227234,239.747192 362.094971,239.256729 367.030609,240.245560 
	C367.788330,240.397369 369.649597,238.927628 369.689545,238.141251 
	C369.938843,233.233063 369.815338,228.305954 369.815338,223.930740 
	C362.511169,220.106369 364.023193,228.339752 360.296722,229.710892 
	C359.836212,228.116806 359.434387,226.725845 359.174438,224.546082 
	C358.757263,224.023102 358.340088,223.500122 358.023529,222.974045 
M175.983337,239.841507 
	C180.607666,239.851883 185.231979,239.862274 190.292801,240.311401 
	C193.718185,240.805069 194.027328,237.913727 195.499954,235.915878 
	C195.499954,235.915878 195.882904,235.870392 196.227585,236.506927 
	C197.922638,240.245575 201.042664,241.810913 204.743652,240.674850 
	C206.695297,240.075760 208.129608,237.791367 209.797501,236.267914 
	C209.325867,235.676056 208.854233,235.084213 208.382584,234.492371 
	C206.563751,235.552048 204.744919,236.611740 202.563110,237.882919 
	C200.315491,235.421555 199.381073,232.424942 200.556686,228.784882 
	C201.472000,225.950775 202.649643,224.739853 205.364243,227.270233 
	C206.231491,228.078629 207.774414,228.162140 210.087479,228.940506 
	C205.524628,221.296799 203.905945,221.072205 196.529922,225.390182 
	C194.012772,224.483536 191.990524,223.755142 189.169556,223.152679 
	C188.807373,226.130768 188.623886,229.146042 188.015121,232.072830 
	C187.657822,233.790604 186.623734,235.367584 185.031296,237.007462 
	C181.791306,237.474762 180.528549,236.081879 180.856918,232.847824 
	C181.055923,230.887817 180.737411,228.876007 180.927338,226.914185 
	C181.223343,223.856552 179.967590,222.620239 176.300125,223.125046 
	C175.398193,224.086609 174.496262,225.048172 173.051163,225.686707 
	C169.178024,221.618698 164.760986,221.831024 160.124252,226.112030 
	C159.388199,225.088501 158.652161,224.064987 157.115479,223.037827 
	C156.104462,223.968597 154.956207,224.791534 154.118164,225.858185 
	C153.135162,227.109344 152.421906,228.572464 151.591644,229.943634 
	C150.675522,228.635681 149.817780,227.281357 148.826508,226.033066 
	C147.875534,224.835510 146.786087,223.747925 145.088562,221.873260 
	C145.088562,229.181046 145.088562,234.688263 145.088562,240.204407 
	C150.940216,240.240204 147.689468,235.524994 149.697479,233.249268 
	C150.752396,233.249268 152.130814,233.249268 153.776764,233.249268 
	C153.962067,235.684967 154.132538,237.925629 154.307419,240.224304 
	C155.698685,240.134552 156.849884,240.060303 158.547363,239.573624 
	C159.326660,238.350479 160.105957,237.127335 161.059723,236.633530 
	C164.321030,242.510208 168.020828,242.612167 174.424164,237.196686 
	C174.898193,237.798584 175.372238,238.400482 175.983337,239.841507 
M224.939072,203.665955 
	C224.742172,203.433075 224.491913,203.302109 223.818497,202.663712 
	C221.448212,199.905441 219.139557,197.091095 216.693497,194.401733 
	C212.807510,190.129257 210.384277,185.885757 213.751877,179.874985 
	C214.954071,177.729263 214.522430,174.419342 214.201035,171.716370 
	C213.298584,164.126617 206.951340,160.432892 201.864868,156.209778 
	C197.174515,152.315552 191.359940,150.110718 184.381165,150.199432 
	C187.843536,154.606644 190.650208,158.475769 193.764130,162.079376 
	C199.711090,168.961533 199.531952,172.407211 192.526230,178.143082 
	C191.638138,178.870209 190.553772,179.353058 189.633469,180.046173 
	C183.500809,184.664856 178.521164,183.801941 174.035110,177.537811 
	C171.123749,173.472473 167.958298,169.589127 164.047073,164.507370 
	C164.047073,168.447403 163.775711,170.929611 164.118423,173.323959 
	C164.512619,176.078125 165.282715,178.811295 166.179916,181.455063 
	C170.464920,194.081680 177.588470,203.788681 192.202133,200.580872 
	C195.915970,199.765656 197.029633,201.137482 198.040680,204.691757 
	C199.293808,205.403366 200.533981,206.703384 201.802155,206.731323 
	C210.175064,206.915726 218.554016,206.826614 226.931000,206.826614 
	C227.104950,206.481018 227.278900,206.135422 227.452835,205.789825 
	C226.613998,205.192764 225.775177,204.595703 225.028290,203.994492 
	C225.028290,203.994492 225.037537,204.086090 224.939072,203.665955 
M305.137604,239.418854 
	C305.442047,239.611298 305.746460,239.803741 306.670715,240.238724 
	C311.999756,241.400543 310.341125,236.582001 310.889008,235.547913 
	C314.797943,233.322998 317.574310,231.742722 320.057098,230.329559 
	C321.167084,231.024384 322.704102,231.986511 324.241119,232.948654 
	C323.538818,233.199570 322.836487,233.450485 322.134186,233.701401 
	C322.134186,235.603500 321.408569,237.989716 322.286743,239.305908 
	C324.060242,241.964096 329.647522,241.404053 332.518524,238.530212 
	C336.303467,234.741592 332.377167,232.413605 330.406952,229.676331 
	C331.638794,228.754074 332.748413,227.923294 333.861694,227.089798 
	C329.474365,221.557892 324.917786,221.462845 319.538055,226.499435 
	C316.317657,223.080490 316.317657,223.080490 305.526123,222.931183 
	C305.319824,222.955460 305.113495,222.979721 304.060760,223.010300 
	C302.005859,222.989212 299.996643,222.828491 300.081970,225.939026 
	C300.212067,230.681137 300.116058,235.429459 300.116058,240.734283 
	C302.144806,239.965927 303.502167,239.451828 305.137604,239.418854 
M248.624817,203.778198 
	C247.945541,204.553696 247.266281,205.329193 245.930008,206.854767 
	C251.702179,206.854767 256.468353,206.967178 261.226715,206.822998 
	C265.942047,206.680130 270.649536,206.278625 275.855347,205.540009 
	C277.651611,202.927292 279.867767,202.691910 282.721039,203.894760 
	C287.890076,206.073898 292.701477,204.781479 297.390442,202.059326 
	C304.814941,197.748993 307.502747,190.094254 310.588562,182.952744 
	C312.022552,179.634033 311.468658,175.456390 311.815887,171.668121 
	C311.916779,172.199860 312.017700,172.731598 312.118622,173.263351 
	C307.472534,176.984665 302.767944,180.635986 298.201508,184.452621 
	C295.292786,186.883667 292.156708,188.228455 288.719299,186.157623 
	C286.209229,184.645477 283.996918,182.564041 281.865295,180.514435 
	C277.349182,176.172043 277.642120,169.529984 282.186127,165.218277 
	C285.711975,161.872665 289.021362,158.298996 292.888641,154.355972 
	C282.388367,153.269684 274.730438,157.565628 268.123016,163.681946 
	C262.062805,169.291779 259.200867,176.180847 262.391846,184.688370 
	C263.034515,186.401840 262.875275,189.310501 261.803375,190.612045 
	C257.939301,195.304016 253.527283,199.544693 248.624817,203.778198 
M230.916412,254.183868 
	C230.338120,253.699539 229.764267,252.799683 229.180878,252.793472 
	C220.941467,252.705811 212.700348,252.704727 204.460953,252.798279 
	C203.643646,252.807541 202.834900,253.574005 201.819977,254.633286 
	C199.719818,256.770599 197.518539,258.819305 195.547394,261.069611 
	C193.489426,263.419006 191.524216,263.785645 188.214279,263.278870 
	C183.759674,262.596863 178.968552,261.981384 174.440506,264.808655 
	C165.561066,270.352814 158.809158,284.652893 160.884079,295.896881 
	C162.932251,293.332520 164.557098,291.113129 166.378647,289.069031 
	C168.238770,286.981689 170.403625,285.163330 172.235260,283.053741 
	C175.170792,279.672760 178.653076,279.116455 182.347107,281.227386 
	C184.747192,282.598907 186.929810,284.472870 188.919098,286.418915 
	C195.456833,292.814575 195.306366,295.217743 188.766434,301.907379 
	C185.365494,305.386169 182.248077,309.142151 178.429688,313.413849 
	C180.334595,313.666901 181.170074,314.011353 181.877090,313.836426 
	C190.977432,311.585327 199.628876,308.331146 205.795074,300.829285 
	C209.770966,295.992157 213.251602,290.092407 210.057007,284.095123 
	C207.197144,278.726166 209.372009,275.983734 212.576767,272.678741 
	C218.417191,266.655579 224.199295,260.575867 230.916412,254.183868 
M127.250618,229.533203 
	C127.070290,227.486847 126.889961,225.440506 126.697174,223.252808 
	C124.076935,223.252808 121.975777,223.252808 119.533195,223.252808 
	C121.661644,233.415771 114.184708,235.291428 106.513245,238.126678 
	C106.152382,234.157639 105.812691,230.421448 105.335579,225.173721 
	C108.459908,226.571671 110.588799,227.524216 113.268921,228.723419 
	C115.724518,227.087402 115.321655,224.981308 112.575256,223.488708 
	C106.590622,220.236252 102.084274,223.127121 102.135971,229.928436 
	C102.148613,231.591370 102.036003,233.257233 102.097984,234.917389 
	C102.268776,239.492508 105.400490,241.664566 109.865646,240.530457 
	C112.342377,239.901382 114.794670,236.859406 117.538063,240.301651 
	C117.754791,240.573578 119.749863,239.873718 120.521263,239.182327 
	C124.213760,235.872833 124.810143,235.952057 127.025299,240.744415 
	C128.065567,240.402771 129.130035,240.053177 130.733322,239.526627 
	C129.641663,236.299561 128.610733,233.252075 127.250618,229.533203 
M135.100418,237.820145 
	C135.586792,238.602829 136.073166,239.385498 136.559540,240.168182 
	C137.333374,239.300659 138.713242,238.474060 138.775085,237.558472 
	C139.028778,233.801834 138.881073,230.018066 138.881073,226.425613 
	C140.158142,225.793137 141.446609,225.154999 142.735077,224.516876 
	C142.591995,223.998535 142.448929,223.480179 142.305847,222.961838 
	C138.639221,223.144440 134.972580,223.327026 131.305939,223.509628 
	C130.850235,224.235870 130.394531,224.962112 129.938828,225.688354 
	C136.017838,224.854889 135.058090,228.225418 135.094391,230.981628 
	C135.120682,232.976944 135.099930,234.972885 135.100418,237.820145 
z"/>
<path fill="#0D3249" opacity="1.000000" stroke="none" 
	d="
M51.917915,223.982437 
	C58.085842,223.368744 62.893417,229.302979 62.983513,233.727844 
	C63.058266,237.399475 57.092621,243.591705 53.393753,244.067490 
	C48.205589,244.734818 43.509163,240.770554 42.379368,234.770203 
	C41.315994,229.122620 45.626038,224.018875 51.917915,223.982437 
z"/>
<path fill="#10354B" opacity="1.000000" stroke="none" 
	d="
M229.707764,408.522552 
	C234.149368,406.011993 238.204895,406.031921 242.124237,408.652191 
	C245.738571,411.068542 247.336761,415.077667 245.745209,418.592285 
	C244.298203,421.787628 241.073914,424.771301 237.894043,426.440033 
	C233.835571,428.569885 229.155655,425.496094 226.148575,419.938934 
	C224.623474,417.120514 226.257874,411.399689 229.707764,408.522552 
z"/>
<path fill="#0F334A" opacity="1.000000" stroke="none" 
	d="
M232.616180,57.700859 
	C225.728271,54.457489 224.106995,47.633854 227.045746,42.646648 
	C230.185364,37.318596 236.768188,36.338371 242.692139,40.231499 
	C246.118454,42.483223 247.163940,46.314041 245.756241,49.352764 
	C244.259247,52.584229 241.041183,55.186409 238.131714,57.508396 
	C237.049469,58.372131 234.713120,57.664497 232.616180,57.700859 
z"/>
<path fill="#0D3249" opacity="1.000000" stroke="none" 
	d="
M424.043701,220.555557 
	C430.384857,223.543320 432.841888,228.298508 430.915131,233.354446 
	C429.345978,237.471924 422.576385,241.118637 418.632355,239.765411 
	C414.495148,238.345871 409.417084,233.576736 410.822021,228.393677 
	C412.621399,221.755692 416.354095,219.219025 424.043701,220.555557 
z"/>
<path fill="#000000" opacity="1.000000" stroke="none" 
	d="
M266.803040,255.871857 
	C268.839935,258.451996 270.795990,261.101593 272.936584,263.592621 
	C275.051453,266.053711 277.107880,267.493988 281.067596,266.375519 
	C289.135620,264.096619 296.342010,267.759583 301.771729,276.502045 
	C305.695831,282.820251 308.005341,289.840973 307.828552,297.448914 
	C307.807098,298.373413 307.450500,299.290131 306.984497,301.420654 
	C302.666260,296.192749 298.975433,291.720947 295.279572,287.253326 
	C294.660187,286.504608 294.145813,285.582825 293.367096,285.066467 
	C289.020447,282.184357 282.721191,284.554535 276.192383,291.312897 
	C272.656891,294.972717 273.080933,298.787018 275.871735,302.432434 
	C279.466675,307.128204 283.360748,311.595001 286.885376,317.268250 
	C283.749176,316.455872 280.510284,315.916138 277.495636,314.780884 
	C267.793579,311.127258 259.729706,305.501709 257.629730,294.581665 
	C256.986115,291.234711 257.461884,287.171844 258.844452,284.069366 
	C260.388275,280.605072 259.392792,278.266113 257.514709,275.970001 
	C251.876663,269.077087 246.049210,262.339111 240.321960,254.859680 
	C248.565277,254.151886 256.782288,254.125107 264.999268,254.098312 
	C264.999268,254.098312 264.995331,254.004837 265.014648,254.287048 
	C265.357971,254.743713 265.681915,254.918182 266.005890,255.092636 
	C266.005890,255.092636 265.996613,254.996552 266.054504,255.191635 
	C266.255646,255.672211 266.485870,255.833923 266.803040,255.871857 
z"/>
<path fill="#000000" opacity="1.000000" stroke="none" 
	d="
M230.005737,254.519775 
	C224.199295,260.575867 218.417191,266.655579 212.576767,272.678741 
	C209.372009,275.983734 207.197144,278.726166 210.057007,284.095123 
	C213.251602,290.092407 209.770966,295.992157 205.795074,300.829285 
	C199.628876,308.331146 190.977432,311.585327 181.877090,313.836426 
	C181.170074,314.011353 180.334595,313.666901 178.429688,313.413849 
	C182.248077,309.142151 185.365494,305.386169 188.766434,301.907379 
	C195.306366,295.217743 195.456833,292.814575 188.919098,286.418915 
	C186.929810,284.472870 184.747192,282.598907 182.347107,281.227386 
	C178.653076,279.116455 175.170792,279.672760 172.235260,283.053741 
	C170.403625,285.163330 168.238770,286.981689 166.378647,289.069031 
	C164.557098,291.113129 162.932251,293.332520 160.884079,295.896881 
	C158.809158,284.652893 165.561066,270.352814 174.440506,264.808655 
	C178.968552,261.981384 183.759674,262.596863 188.214279,263.278870 
	C191.524216,263.785645 193.489426,263.419006 195.547394,261.069611 
	C197.518539,258.819305 199.719818,256.770599 202.387146,254.291016 
	C211.971451,254.139099 220.988586,254.329437 230.005737,254.519775 
z"/>
<path fill="#000000" opacity="1.000000" stroke="none" 
	d="
M197.997635,203.921860 
	C197.029633,201.137482 195.915970,199.765656 192.202133,200.580872 
	C177.588470,203.788681 170.464920,194.081680 166.179916,181.455063 
	C165.282715,178.811295 164.512619,176.078125 164.118423,173.323959 
	C163.775711,170.929611 164.047073,168.447403 164.047073,164.507370 
	C167.958298,169.589127 171.123749,173.472473 174.035110,177.537811 
	C178.521164,183.801941 183.500809,184.664856 189.633469,180.046173 
	C190.553772,179.353058 191.638138,178.870209 192.526230,178.143082 
	C199.531952,172.407211 199.711090,168.961533 193.764130,162.079376 
	C190.650208,158.475769 187.843536,154.606644 184.381165,150.199432 
	C191.359940,150.110718 197.174515,152.315552 201.864868,156.209778 
	C206.951340,160.432892 213.298584,164.126617 214.201035,171.716370 
	C214.522430,174.419342 214.954071,177.729263 213.751877,179.874985 
	C210.384277,185.885757 212.807510,190.129257 216.693497,194.401733 
	C219.139557,197.091095 221.448212,199.905441 224.110474,203.135635 
	C224.612625,203.769058 224.824326,203.928558 225.037537,204.086090 
	C225.037537,204.086090 225.028290,203.994492 224.797928,204.387833 
	C215.710922,204.494736 206.854279,204.208298 197.997635,203.921860 
z"/>
<path fill="#000000" opacity="1.000000" stroke="none" 
	d="
M249.322235,203.955841 
	C253.527283,199.544693 257.939301,195.304016 261.803375,190.612045 
	C262.875275,189.310501 263.034515,186.401840 262.391846,184.688370 
	C259.200867,176.180847 262.062805,169.291779 268.123016,163.681946 
	C274.730438,157.565628 282.388367,153.269684 292.888641,154.355972 
	C289.021362,158.298996 285.711975,161.872665 282.186127,165.218277 
	C277.642120,169.529984 277.349182,176.172043 281.865295,180.514435 
	C283.996918,182.564041 286.209229,184.645477 288.719299,186.157623 
	C292.156708,188.228455 295.292786,186.883667 298.201508,184.452621 
	C302.767944,180.635986 307.472534,176.984665 312.118622,173.263351 
	C312.017700,172.731598 311.916779,172.199860 311.815887,171.668121 
	C311.468658,175.456390 312.022552,179.634033 310.588562,182.952744 
	C307.502747,190.094254 304.814941,197.748993 297.390442,202.059326 
	C292.701477,204.781479 287.890076,206.073898 282.721039,203.894760 
	C279.867767,202.691910 277.651611,202.927292 275.351868,205.382751 
	C268.088928,205.120285 261.327759,205.073669 254.571320,204.870010 
	C252.814026,204.817062 251.071518,204.273865 249.322235,203.955841 
z"/>
<path fill="#000000" opacity="1.000000" stroke="none" 
	d="
M306.146057,222.999893 
	C316.317657,223.080490 316.317657,223.080490 319.538055,226.499435 
	C324.917786,221.462845 329.474365,221.557892 333.861694,227.089798 
	C332.748413,227.923294 331.638794,228.754074 330.406952,229.676331 
	C332.377167,232.413605 336.303467,234.741592 332.518524,238.530212 
	C329.647522,241.404053 324.060242,241.964096 322.286743,239.305908 
	C321.408569,237.989716 322.134186,235.603500 322.134186,233.701401 
	C322.836487,233.450485 323.538818,233.199570 324.241119,232.948654 
	C322.704102,231.986511 321.167084,231.024384 320.057098,230.329559 
	C317.574310,231.742722 314.797943,233.322998 310.889008,235.547913 
	C310.341125,236.582001 311.999756,241.400543 306.335754,239.650970 
	C306.049194,233.708771 306.097626,228.354340 306.146057,222.999893 
z"/>
<path fill="#000000" opacity="1.000000" stroke="none" 
	d="
M127.415215,229.868896 
	C128.610733,233.252075 129.641663,236.299561 130.733322,239.526627 
	C129.130035,240.053177 128.065567,240.402771 127.025299,240.744415 
	C124.810143,235.952057 124.213760,235.872833 120.521263,239.182327 
	C119.749863,239.873718 117.754791,240.573578 117.538063,240.301651 
	C114.794670,236.859406 112.342377,239.901382 109.865646,240.530457 
	C105.400490,241.664566 102.268776,239.492508 102.097984,234.917389 
	C102.036003,233.257233 102.148613,231.591370 102.135971,229.928436 
	C102.084274,223.127121 106.590622,220.236252 112.575256,223.488708 
	C115.321655,224.981308 115.724518,227.087402 113.268921,228.723419 
	C110.588799,227.524216 108.459908,226.571671 105.335579,225.173721 
	C105.812691,230.421448 106.152382,234.157639 106.513245,238.126678 
	C114.184708,235.291428 121.661644,233.415771 119.533195,223.252808 
	C121.975777,223.252808 124.076935,223.252808 126.697174,223.252808 
	C126.889961,225.440506 127.070290,227.486847 127.415215,229.868896 
z"/>
<path fill="#000000" opacity="1.000000" stroke="none" 
	d="
M359.032532,225.334885 
	C359.434387,226.725845 359.836212,228.116806 360.296722,229.710892 
	C364.023193,228.339752 362.511169,220.106369 369.815338,223.930740 
	C369.815338,228.305954 369.938843,233.233063 369.689545,238.141251 
	C369.649597,238.927628 367.788330,240.397369 367.030609,240.245560 
	C362.094971,239.256729 357.227234,239.747192 352.165466,239.658646 
	C351.994995,233.713486 351.994995,228.445526 351.994995,223.074158 
	C354.397766,223.074158 356.216156,223.074158 358.034546,223.074158 
	C358.034546,223.074158 358.023529,222.974045 357.995544,223.327133 
	C358.322571,224.231781 358.677551,224.783340 359.032532,225.334885 
z"/>
<path fill="#000000" opacity="1.000000" stroke="none" 
	d="
M273.974487,223.021759 
	C278.280518,222.312622 281.355774,223.482040 282.800781,228.798248 
	C283.893951,227.064056 284.987122,225.329865 286.301727,223.244370 
	C287.600311,223.244370 289.370270,223.244370 291.888306,223.244370 
	C291.888306,228.139481 291.977509,232.878311 291.805115,237.607605 
	C291.774475,238.448212 290.343964,240.035309 290.093292,239.935669 
	C288.844025,239.439102 287.772980,238.494278 287.389069,238.227783 
	C282.681854,238.974091 278.482697,239.639832 274.090271,239.627106 
	C273.922821,233.639679 273.948669,228.330719 273.974487,223.021759 
z"/>
<path fill="#000000" opacity="1.000000" stroke="none" 
	d="
M195.117020,235.870239 
	C194.027328,237.913727 193.718185,240.805069 190.114410,239.635223 
	C189.946777,233.648285 189.957535,228.337524 189.968292,223.026764 
	C191.990524,223.755142 194.012772,224.483536 196.529922,225.390182 
	C203.905945,221.072205 205.524628,221.296799 210.087479,228.940506 
	C207.774414,228.162140 206.231491,228.078629 205.364243,227.270233 
	C202.649643,224.739853 201.472000,225.950775 200.556686,228.784882 
	C199.381073,232.424942 200.315491,235.421555 202.563110,237.882919 
	C204.744919,236.611740 206.563751,235.552048 208.382584,234.492371 
	C208.854233,235.084213 209.325867,235.676056 209.797501,236.267914 
	C208.129608,237.791367 206.695297,240.075760 204.743652,240.674850 
	C201.042664,241.810913 197.922638,240.245575 196.098145,235.754791 
	C195.968719,232.545639 195.968719,230.088623 195.968719,227.631607 
	C195.290054,228.030945 195.010269,228.456238 195.009888,228.881805 
	C195.007721,231.211258 195.074158,233.540756 195.117020,235.870239 
z"/>
<path fill="#000000" opacity="1.000000" stroke="none" 
	d="
M256.024231,240.058197 
	C254.735779,239.321701 253.350861,238.709610 252.189697,237.808990 
	C251.277069,237.101151 250.640747,236.037079 249.881699,235.131256 
	C249.193939,236.098038 248.574219,237.124069 247.798737,238.014435 
	C247.063507,238.858597 246.165054,239.560608 245.164215,239.647858 
	C245.018005,233.638687 245.045959,228.306778 245.073929,222.974884 
	C245.073929,222.974884 244.976776,222.974899 245.426102,223.013550 
	C248.584702,223.126511 251.293961,223.200821 254.184158,223.564911 
	C259.261566,227.004822 259.195740,228.990479 254.626175,233.642868 
	C255.159607,236.090607 255.591919,238.074402 256.024231,240.058197 
M251.281525,226.104782 
	C250.996338,227.135513 250.711166,228.166229 250.425980,229.196945 
	C250.977615,229.249054 251.529251,229.301178 252.080887,229.353287 
	C252.016342,228.391449 251.951782,227.429611 251.281525,226.104782 
z"/>
<path fill="#000000" opacity="1.000000" stroke="none" 
	d="
M228.976929,235.934311 
	C229.033401,234.128922 229.311890,232.296783 229.098343,230.523926 
	C228.700256,227.218887 229.170868,224.116577 232.428848,222.816086 
	C235.944031,221.412933 240.703232,224.016953 242.710831,228.257660 
	C242.927338,230.938980 242.852386,232.978699 242.777435,235.018417 
	C239.440750,241.415512 235.014893,242.671036 230.027863,237.972992 
	C229.512192,236.898849 229.244568,236.416580 228.976929,235.934311 
M235.253708,237.888138 
	C237.574936,235.731110 239.171494,228.909927 237.319031,227.311737 
	C236.275620,226.411530 234.142883,226.773926 231.801743,226.479660 
	C232.860992,231.079102 233.642181,234.471176 235.253708,237.888138 
z"/>
<path fill="#000000" opacity="1.000000" stroke="none" 
	d="
M348.982788,237.980286 
	C346.904449,238.927170 344.910034,240.261124 342.728882,240.734192 
	C339.055908,241.530792 336.488708,239.869797 336.147217,235.974579 
	C335.858917,232.685852 335.901459,229.346436 336.109100,226.049088 
	C336.171509,225.057755 337.278290,224.132172 337.906647,223.176468 
	C338.549164,224.103790 339.637756,224.982025 339.746216,225.968094 
	C340.016266,228.422989 339.727570,230.934113 339.884491,233.408630 
	C339.980804,234.926392 340.485321,236.418259 340.875763,238.245911 
	C346.913757,236.056244 344.654358,231.424332 344.924316,227.897263 
	C345.154846,224.885574 344.907654,222.040787 349.624023,223.356689 
	C349.647125,228.624374 349.314972,233.302322 348.982788,237.980286 
z"/>
<path fill="#000000" opacity="1.000000" stroke="none" 
	d="
M158.001083,239.986053 
	C156.849884,240.060303 155.698685,240.134552 154.307419,240.224304 
	C154.132538,237.925629 153.962067,235.684967 153.776764,233.249268 
	C152.130814,233.249268 150.752396,233.249268 149.697479,233.249268 
	C147.689468,235.524994 150.940216,240.240204 145.088562,240.204407 
	C145.088562,234.688263 145.088562,229.181046 145.088562,221.873260 
	C146.786087,223.747925 147.875534,224.835510 148.826508,226.033066 
	C149.817780,227.281357 150.675522,228.635681 151.591644,229.943634 
	C152.421906,228.572464 153.135162,227.109344 154.118164,225.858185 
	C154.956207,224.791534 156.104462,223.968597 157.570404,223.501404 
	C158.017258,229.305344 158.009171,234.645691 158.001083,239.986053 
z"/>
<path fill="#000000" opacity="1.000000" stroke="none" 
	d="
M173.871506,236.986588 
	C168.020828,242.612167 164.321030,242.510208 161.018280,235.827942 
	C160.896042,232.107819 160.815216,229.193314 160.734406,226.278793 
	C164.760986,221.831024 169.178024,221.618698 173.453644,226.238007 
	C173.861252,230.188400 173.866379,233.587494 173.871506,236.986588 
M167.310303,226.018585 
	C162.164993,227.960419 166.247772,232.264893 165.053238,235.260132 
	C164.832535,235.813553 166.052444,237.619354 166.709198,237.676437 
	C167.565567,237.750885 169.331161,236.619553 169.305374,236.073135 
	C169.148529,232.749924 168.593796,229.445496 167.310303,226.018585 
z"/>
<path fill="#000000" opacity="1.000000" stroke="none" 
	d="
M269.926819,239.989502 
	C266.752350,240.159607 263.577881,240.329727 260.194031,239.736420 
	C259.984680,233.724915 259.984680,228.476822 259.984680,222.544632 
	C263.805267,223.075897 266.945587,223.512573 270.015381,224.285400 
	C269.987030,225.076340 270.029236,225.531128 269.667145,226.022003 
	C267.544128,226.436264 265.825409,226.814453 264.106720,227.192657 
	C264.125244,227.859467 264.143768,228.526260 264.162292,229.193069 
	C266.071014,229.487961 267.979736,229.782852 269.932526,230.446426 
	C269.964905,231.546066 269.953247,232.277039 269.966797,233.012970 
	C269.992035,233.017944 270.006439,232.969299 269.578613,232.907120 
	C267.555817,233.002762 265.960846,233.160583 264.360046,233.318985 
	C263.571930,236.195038 264.033173,237.915451 267.283966,238.194214 
	C268.209442,238.273575 269.048248,239.363174 269.926819,239.989502 
z"/>
<path fill="#000000" opacity="1.000000" stroke="none" 
	d="
M135.100281,237.394348 
	C135.099930,234.972885 135.120682,232.976944 135.094391,230.981628 
	C135.058090,228.225418 136.017838,224.854889 129.938828,225.688354 
	C130.394531,224.962112 130.850235,224.235870 131.305939,223.509628 
	C134.972580,223.327026 138.639221,223.144440 142.305847,222.961838 
	C142.448929,223.480179 142.591995,223.998535 142.735077,224.516876 
	C141.446609,225.154999 140.158142,225.793137 138.881073,226.425613 
	C138.881073,230.018066 139.028778,233.801834 138.775085,237.558472 
	C138.713242,238.474060 137.333374,239.300659 136.559540,240.168182 
	C136.073166,239.385498 135.586792,238.602829 135.100281,237.394348 
z"/>
<path fill="#000000" opacity="1.000000" stroke="none" 
	d="
M304.859528,238.937744 
	C303.502167,239.451828 302.144806,239.965927 300.116058,240.734283 
	C300.116058,235.429459 300.212067,230.681137 300.081970,225.939026 
	C299.996643,222.828491 302.005859,222.989212 304.524170,223.471939 
	C304.944885,228.934967 304.902191,233.936356 304.859528,238.937744 
z"/>
<path fill="#000000" opacity="1.000000" stroke="none" 
	d="
M176.976028,223.022049 
	C179.967590,222.620239 181.223343,223.856552 180.927338,226.914185 
	C180.737411,228.876007 181.055923,230.887817 180.856918,232.847824 
	C180.528549,236.081879 181.791306,237.474762 185.454453,237.421646 
	C183.363113,242.093094 179.957397,239.635147 176.840530,238.572571 
	C176.913391,233.076965 176.944702,228.049500 176.976028,223.022049 
z"/>
<path fill="#68808E" opacity="1.000000" stroke="none" 
	d="
M228.531189,235.908356 
	C229.244568,236.416580 229.512192,236.898849 229.844269,237.652527 
	C226.765793,242.175552 222.205002,241.118256 217.983170,240.900635 
	C217.090927,240.854645 215.542816,239.378281 215.539536,238.556030 
	C215.519547,233.515915 215.857040,228.474380 216.397980,223.720917 
	C216.720474,229.243683 216.720474,234.478867 216.720474,239.279602 
	C220.597351,239.279602 223.551331,239.279602 226.505325,239.279602 
	C226.507935,238.973862 226.510544,238.668121 226.513153,238.362381 
	C224.531235,238.112457 222.549316,237.862549 221.002975,237.667572 
	C221.002975,232.440216 221.002975,227.734787 221.002975,223.029358 
	C221.437836,227.105865 221.872696,231.182373 222.374069,235.882401 
	C224.230850,235.882401 226.158142,235.882401 228.531189,235.908356 
z"/>
<path fill="#000000" opacity="1.000000" stroke="none" 
	d="
M220.575684,223.027466 
	C221.002975,227.734787 221.002975,232.440216 221.002975,237.667572 
	C222.549316,237.862549 224.531235,238.112457 226.513153,238.362381 
	C226.510544,238.668121 226.507935,238.973862 226.505325,239.279602 
	C223.551331,239.279602 220.597351,239.279602 216.720474,239.279602 
	C216.720474,234.478867 216.720474,229.243683 216.720612,223.549530 
	C217.863297,223.068893 219.005844,223.047241 220.575684,223.027466 
z"/>
<path fill="#4A6677" opacity="1.000000" stroke="none" 
	d="
M270.071442,225.985916 
	C270.029236,225.531128 269.987030,225.076340 270.294128,224.192596 
	C270.730957,223.207077 270.818542,222.650513 270.906097,222.093948 
	C271.724609,222.329773 272.543152,222.565598 273.668091,222.911591 
	C273.948669,228.330719 273.922821,233.639679 273.857910,239.403076 
	C272.711426,239.969849 271.604004,240.082169 270.211731,240.091995 
	C269.048248,239.363174 268.209442,238.273575 267.283966,238.194214 
	C264.033173,237.915451 263.571930,236.195038 264.360046,233.318985 
	C265.960846,233.160583 267.555817,233.002762 269.320190,233.163971 
	C268.104340,233.869461 266.719025,234.255905 265.333710,234.642334 
	C265.421204,234.955627 265.508728,235.268906 265.596222,235.582184 
	C267.614563,235.582184 269.632904,235.582184 273.160706,235.582184 
	C271.987946,231.939224 271.029694,228.962570 270.071442,225.985916 
z"/>
<path fill="#C5CED3" opacity="1.000000" stroke="none" 
	d="
M198.019165,204.306808 
	C206.854279,204.208298 215.710922,204.494736 224.751953,204.389908 
	C225.775177,204.595703 226.613998,205.192764 227.452835,205.789825 
	C227.278900,206.135422 227.104950,206.481018 226.931000,206.826614 
	C218.554016,206.826614 210.175064,206.915726 201.802155,206.731323 
	C200.533981,206.703384 199.293808,205.403366 198.019165,204.306808 
z"/>
<path fill="#C5CED3" opacity="1.000000" stroke="none" 
	d="
M248.973526,203.867035 
	C251.071518,204.273865 252.814026,204.817062 254.571320,204.870010 
	C261.327759,205.073669 268.088928,205.120285 275.104401,205.608032 
	C270.649536,206.278625 265.942047,206.680130 261.226715,206.822998 
	C256.468353,206.967178 251.702179,206.854767 245.930008,206.854767 
	C247.266281,205.329193 247.945541,204.553696 248.973526,203.867035 
z"/>
<path fill="#5B7583" opacity="1.000000" stroke="none" 
	d="
M176.798996,239.040710 
	C179.957397,239.635147 183.363113,242.093094 185.885834,237.421860 
	C186.623734,235.367584 187.657822,233.790604 188.015121,232.072830 
	C188.623886,229.146042 188.807373,226.130768 189.568924,223.089722 
	C189.957535,228.337524 189.946777,233.648285 189.896179,239.415848 
	C185.231979,239.862274 180.607666,239.851883 176.153412,239.435669 
	C176.323502,239.029831 176.798996,239.040710 176.798996,239.040710 
z"/>
<path fill="#E6E8EB" opacity="1.000000" stroke="none" 
	d="
M265.159973,253.686157 
	C256.782288,254.125107 248.565277,254.151886 240.144226,254.572449 
	C239.183182,254.705582 238.426193,254.444931 237.669205,254.184280 
	C237.997757,253.880859 238.326294,253.577423 238.654846,253.274002 
	C247.543442,253.274002 256.432037,253.274002 265.159973,253.686157 
z"/>
<path fill="#476374" opacity="1.000000" stroke="none" 
	d="
M176.840530,238.572571 
	C176.798996,239.040710 176.323502,239.029831 176.084885,239.016113 
	C175.372238,238.400482 174.898193,237.798584 174.147827,237.091644 
	C173.866379,233.587494 173.861252,230.188400 173.725220,226.399521 
	C174.496262,225.048172 175.398193,224.086609 176.638077,223.073547 
	C176.944702,228.049500 176.913391,233.076965 176.840530,238.572571 
z"/>
<path fill="#2A4B5F" opacity="1.000000" stroke="none" 
	d="
M256.201050,240.320251 
	C255.591919,238.074402 255.159607,236.090607 254.626175,233.642868 
	C259.195740,228.990479 259.261566,227.004822 254.231934,223.245789 
	C254.066513,222.424271 254.034256,222.211639 254.001984,221.998993 
	C255.389328,222.627609 256.776672,223.256210 258.583313,224.380249 
	C259.013153,229.865295 259.023682,234.854904 259.034241,239.844513 
	C258.148804,240.090454 257.263336,240.336380 256.201050,240.320251 
z"/>
<path fill="#A6B2BB" opacity="1.000000" stroke="none" 
	d="
M349.299683,238.091156 
	C349.314972,233.302322 349.647125,228.624374 349.928833,223.488129 
	C352.526855,222.772873 355.175415,222.515884 357.929260,222.666534 
	C356.216156,223.074158 354.397766,223.074158 351.994995,223.074158 
	C351.994995,228.445526 351.994995,233.713486 351.952240,239.442749 
	C351.145172,239.336700 350.380890,238.769363 349.299683,238.091156 
z"/>
<path fill="#546E7E" opacity="1.000000" stroke="none" 
	d="
M160.429321,226.195404 
	C160.815216,229.193314 160.896042,232.107819 160.931061,235.463257 
	C160.105957,237.127335 159.326660,238.350479 158.274231,239.779846 
	C158.009171,234.645691 158.017258,229.305344 157.970734,223.503220 
	C158.652161,224.064987 159.388199,225.088501 160.429321,226.195404 
z"/>
<path fill="#A8B5BE" opacity="1.000000" stroke="none" 
	d="
M259.249756,239.890182 
	C259.023682,234.854904 259.013153,229.865295 258.914032,224.413132 
	C260.586853,223.279388 262.299988,222.329605 264.122925,222.013672 
	C266.029968,221.683151 268.042572,221.961929 270.457581,222.034164 
	C270.818542,222.650513 270.730957,223.207077 270.364655,223.856445 
	C266.945587,223.512573 263.805267,223.075897 259.984680,222.544632 
	C259.984680,228.476822 259.984680,233.724915 259.944336,239.433868 
	C259.903992,239.894730 259.465302,239.935852 259.249756,239.890182 
z"/>
<path fill="#EAEDEF" opacity="1.000000" stroke="none" 
	d="
M230.461075,254.351837 
	C220.988586,254.329437 211.971451,254.139099 202.488235,253.968903 
	C202.834900,253.574005 203.643646,252.807541 204.460953,252.798279 
	C212.700348,252.704727 220.941467,252.705811 229.180878,252.793472 
	C229.764267,252.799683 230.338120,253.699539 230.461075,254.351837 
z"/>
<path fill="#9CABB4" opacity="1.000000" stroke="none" 
	d="
M243.138519,235.126053 
	C242.852386,232.978699 242.927338,230.938980 243.000549,228.462708 
	C243.436050,226.387192 243.873276,224.748245 244.692215,223.042084 
	C245.045959,228.306778 245.018005,233.638687 244.950638,239.430618 
	C244.440704,238.338333 243.970154,236.786011 243.138519,235.126053 
z"/>
<path fill="#476374" opacity="1.000000" stroke="none" 
	d="
M304.998566,239.178299 
	C304.902191,233.936356 304.944885,228.934967 304.947327,223.468781 
	C305.113495,222.979721 305.319824,222.955460 305.836060,222.965546 
	C306.097626,228.354340 306.049194,233.708771 306.025818,239.529694 
	C305.746460,239.803741 305.442047,239.611298 304.998566,239.178299 
z"/>
<path fill="#9CABB4" opacity="1.000000" stroke="none" 
	d="
M253.554688,221.975296 
	C254.034256,222.211639 254.066513,222.424271 254.050995,222.956009 
	C251.293961,223.200821 248.584702,223.126511 245.422287,223.061981 
	C247.681885,222.698380 250.394638,222.324997 253.554688,221.975296 
z"/>
<path fill="#7C919D" opacity="1.000000" stroke="none" 
	d="
M195.308487,235.893066 
	C195.074158,233.540756 195.007721,231.211258 195.009888,228.881805 
	C195.010269,228.456238 195.290054,228.030945 195.968719,227.631607 
	C195.968719,230.088623 195.968719,232.545639 195.925812,235.436523 
	C195.882904,235.870392 195.499954,235.915878 195.308487,235.893066 
z"/>
<path fill="#A6B2BB" opacity="1.000000" stroke="none" 
	d="
M359.103516,224.940491 
	C358.677551,224.783340 358.322571,224.231781 357.945251,223.328674 
	C358.340088,223.500122 358.757263,224.023102 359.103516,224.940491 
z"/>
<path fill="#C5CED3" opacity="1.000000" stroke="none" 
	d="
M224.988312,203.876022 
	C224.824326,203.928558 224.612625,203.769058 224.295364,203.440292 
	C224.491913,203.302109 224.742172,203.433075 224.988312,203.876022 
z"/>
<path fill="#E6E8EB" opacity="1.000000" stroke="none" 
	d="
M266.796478,255.561615 
	C266.485870,255.833923 266.255646,255.672211 266.006439,255.196075 
	C266.196991,255.087418 266.493439,255.169403 266.796478,255.561615 
z"/>
<path fill="#E6E8EB" opacity="1.000000" stroke="none" 
	d="
M266.182190,254.668274 
	C265.681915,254.918182 265.357971,254.743713 264.967957,254.289764 
	C265.387451,254.088150 265.872986,254.166031 266.182190,254.668274 
z"/>
<path fill="#1E3F55" opacity="1.000000" stroke="none" 
	d="
M251.584381,226.286285 
	C251.951782,227.429611 252.016342,228.391449 252.080887,229.353287 
	C251.529251,229.301178 250.977615,229.249054 250.425995,229.196945 
	C250.711166,228.166229 250.996338,227.135513 251.584381,226.286285 
z"/>
<path fill="#1A3D52" opacity="1.000000" stroke="none" 
	d="
M234.838531,237.875687 
	C233.642181,234.471176 232.860992,231.079102 231.801743,226.479660 
	C234.142883,226.773926 236.275620,226.411530 237.319031,227.311737 
	C239.171494,228.909927 237.574936,235.731110 234.838531,237.875687 
z"/>
<path fill="#1E3F55" opacity="1.000000" stroke="none" 
	d="
M167.741089,226.076691 
	C168.593796,229.445496 169.148529,232.749924 169.305374,236.073135 
	C169.331161,236.619553 167.565567,237.750885 166.709198,237.676437 
	C166.052444,237.619354 164.832535,235.813553 165.053238,235.260132 
	C166.247772,232.264893 162.164993,227.960419 167.741089,226.076691 
z"/>
<path fill="#193A50" opacity="1.000000" stroke="none" 
	d="
M269.667145,226.022003 
	C271.029694,228.962570 271.987946,231.939224 273.160706,235.582184 
	C269.632904,235.582184 267.614563,235.582184 265.596222,235.582184 
	C265.508728,235.268906 265.421204,234.955627 265.333710,234.642334 
	C266.719025,234.255905 268.104340,233.869461 269.748047,233.226166 
	C270.006439,232.969299 269.992035,233.017944 270.196045,232.830231 
	C270.229523,231.787582 270.058990,230.932678 269.888458,230.077759 
	C267.979736,229.782852 266.071014,229.487961 264.162292,229.193069 
	C264.143768,228.526260 264.125244,227.859467 264.106720,227.192657 
	C265.825409,226.814453 267.544128,226.436264 269.667145,226.022003 
z"/>
<path fill="#4A6677" opacity="1.000000" stroke="none" 
	d="
M269.932526,230.446442 
	C270.058990,230.932678 270.229523,231.787582 270.170837,232.825256 
	C269.953247,232.277039 269.964905,231.546066 269.932526,230.446442 
z"/>
</svg>